<?xml version="1.0" encoding="utf-8"?>
<svg xmlns="http://www.w3.org/2000/svg" xmlns:xlink="http://www.w3.org/1999/xlink" width="600" height="400" viewBox="0 0 2400 1600">
<defs>
  <clipPath id="clip4800">
    <rect x="0" y="0" width="2400" height="1600"/>
  </clipPath>
</defs>
<path clip-path="url(#clip4800)" d="
M0 1600 L2400 1600 L2400 0 L0 0  Z
  " fill="#ffffff" fill-rule="evenodd" fill-opacity="1"/>
<defs>
  <clipPath id="clip4801">
    <rect x="480" y="0" width="1681" height="1600"/>
  </clipPath>
</defs>
<path clip-path="url(#clip4800)" d="
M203.721 1425.62 L2352.76 1425.62 L2352.76 47.2441 L203.721 47.2441  Z
  " fill="#ffffff" fill-rule="evenodd" fill-opacity="1"/>
<defs>
  <clipPath id="clip4802">
    <rect x="203" y="47" width="2150" height="1379"/>
  </clipPath>
</defs>
<polyline clip-path="url(#clip4802)" style="stroke:#000000; stroke-width:2; stroke-opacity:0.1; fill:none" points="
  203.721,1425.62 203.721,47.2441 
  "/>
<polyline clip-path="url(#clip4802)" style="stroke:#000000; stroke-width:2; stroke-opacity:0.1; fill:none" points="
  740.979,1425.62 740.979,47.2441 
  "/>
<polyline clip-path="url(#clip4802)" style="stroke:#000000; stroke-width:2; stroke-opacity:0.1; fill:none" points="
  1278.24,1425.62 1278.24,47.2441 
  "/>
<polyline clip-path="url(#clip4802)" style="stroke:#000000; stroke-width:2; stroke-opacity:0.1; fill:none" points="
  1815.5,1425.62 1815.5,47.2441 
  "/>
<polyline clip-path="url(#clip4802)" style="stroke:#000000; stroke-width:2; stroke-opacity:0.1; fill:none" points="
  2352.76,1425.62 2352.76,47.2441 
  "/>
<polyline clip-path="url(#clip4802)" style="stroke:#000000; stroke-width:2; stroke-opacity:0.1; fill:none" points="
  203.721,1425.62 2352.76,1425.62 
  "/>
<polyline clip-path="url(#clip4802)" style="stroke:#000000; stroke-width:2; stroke-opacity:0.1; fill:none" points="
  203.721,1149.94 2352.76,1149.94 
  "/>
<polyline clip-path="url(#clip4802)" style="stroke:#000000; stroke-width:2; stroke-opacity:0.1; fill:none" points="
  203.721,874.269 2352.76,874.269 
  "/>
<polyline clip-path="url(#clip4802)" style="stroke:#000000; stroke-width:2; stroke-opacity:0.1; fill:none" points="
  203.721,598.594 2352.76,598.594 
  "/>
<polyline clip-path="url(#clip4802)" style="stroke:#000000; stroke-width:2; stroke-opacity:0.1; fill:none" points="
  203.721,322.919 2352.76,322.919 
  "/>
<polyline clip-path="url(#clip4802)" style="stroke:#000000; stroke-width:2; stroke-opacity:0.1; fill:none" points="
  203.721,47.2441 2352.76,47.2441 
  "/>
<polyline clip-path="url(#clip4800)" style="stroke:#000000; stroke-width:4; stroke-opacity:1; fill:none" points="
  203.721,1425.62 2352.76,1425.62 
  "/>
<polyline clip-path="url(#clip4800)" style="stroke:#000000; stroke-width:4; stroke-opacity:1; fill:none" points="
  203.721,1425.62 203.721,47.2441 
  "/>
<polyline clip-path="url(#clip4800)" style="stroke:#000000; stroke-width:4; stroke-opacity:1; fill:none" points="
  203.721,1425.62 203.721,1409.08 
  "/>
<polyline clip-path="url(#clip4800)" style="stroke:#000000; stroke-width:4; stroke-opacity:1; fill:none" points="
  740.979,1425.62 740.979,1409.08 
  "/>
<polyline clip-path="url(#clip4800)" style="stroke:#000000; stroke-width:4; stroke-opacity:1; fill:none" points="
  1278.24,1425.62 1278.24,1409.08 
  "/>
<polyline clip-path="url(#clip4800)" style="stroke:#000000; stroke-width:4; stroke-opacity:1; fill:none" points="
  1815.5,1425.62 1815.5,1409.08 
  "/>
<polyline clip-path="url(#clip4800)" style="stroke:#000000; stroke-width:4; stroke-opacity:1; fill:none" points="
  2352.76,1425.62 2352.76,1409.08 
  "/>
<polyline clip-path="url(#clip4800)" style="stroke:#000000; stroke-width:4; stroke-opacity:1; fill:none" points="
  203.721,1425.62 229.509,1425.62 
  "/>
<polyline clip-path="url(#clip4800)" style="stroke:#000000; stroke-width:4; stroke-opacity:1; fill:none" points="
  203.721,1149.94 229.509,1149.94 
  "/>
<polyline clip-path="url(#clip4800)" style="stroke:#000000; stroke-width:4; stroke-opacity:1; fill:none" points="
  203.721,874.269 229.509,874.269 
  "/>
<polyline clip-path="url(#clip4800)" style="stroke:#000000; stroke-width:4; stroke-opacity:1; fill:none" points="
  203.721,598.594 229.509,598.594 
  "/>
<polyline clip-path="url(#clip4800)" style="stroke:#000000; stroke-width:4; stroke-opacity:1; fill:none" points="
  203.721,322.919 229.509,322.919 
  "/>
<polyline clip-path="url(#clip4800)" style="stroke:#000000; stroke-width:4; stroke-opacity:1; fill:none" points="
  203.721,47.2441 229.509,47.2441 
  "/>
<g clip-path="url(#clip4800)">
<text style="fill:#000000; fill-opacity:1; font-family:Arial,Helvetica Neue,Helvetica,sans-serif; font-size:48px; text-anchor:middle;" transform="rotate(0, 203.721, 1479.62)" x="203.721" y="1479.62">200</text>
</g>
<g clip-path="url(#clip4800)">
<text style="fill:#000000; fill-opacity:1; font-family:Arial,Helvetica Neue,Helvetica,sans-serif; font-size:48px; text-anchor:middle;" transform="rotate(0, 740.979, 1479.62)" x="740.979" y="1479.62">300</text>
</g>
<g clip-path="url(#clip4800)">
<text style="fill:#000000; fill-opacity:1; font-family:Arial,Helvetica Neue,Helvetica,sans-serif; font-size:48px; text-anchor:middle;" transform="rotate(0, 1278.24, 1479.62)" x="1278.24" y="1479.62">400</text>
</g>
<g clip-path="url(#clip4800)">
<text style="fill:#000000; fill-opacity:1; font-family:Arial,Helvetica Neue,Helvetica,sans-serif; font-size:48px; text-anchor:middle;" transform="rotate(0, 1815.5, 1479.62)" x="1815.5" y="1479.62">500</text>
</g>
<g clip-path="url(#clip4800)">
<text style="fill:#000000; fill-opacity:1; font-family:Arial,Helvetica Neue,Helvetica,sans-serif; font-size:48px; text-anchor:middle;" transform="rotate(0, 2352.76, 1479.62)" x="2352.76" y="1479.62">600</text>
</g>
<g clip-path="url(#clip4800)">
<text style="fill:#000000; fill-opacity:1; font-family:Arial,Helvetica Neue,Helvetica,sans-serif; font-size:48px; text-anchor:end;" transform="rotate(0, 179.721, 1443.12)" x="179.721" y="1443.12">-8</text>
</g>
<g clip-path="url(#clip4800)">
<text style="fill:#000000; fill-opacity:1; font-family:Arial,Helvetica Neue,Helvetica,sans-serif; font-size:48px; text-anchor:end;" transform="rotate(0, 179.721, 1167.44)" x="179.721" y="1167.44">-7</text>
</g>
<g clip-path="url(#clip4800)">
<text style="fill:#000000; fill-opacity:1; font-family:Arial,Helvetica Neue,Helvetica,sans-serif; font-size:48px; text-anchor:end;" transform="rotate(0, 179.721, 891.769)" x="179.721" y="891.769">-6</text>
</g>
<g clip-path="url(#clip4800)">
<text style="fill:#000000; fill-opacity:1; font-family:Arial,Helvetica Neue,Helvetica,sans-serif; font-size:48px; text-anchor:end;" transform="rotate(0, 179.721, 616.094)" x="179.721" y="616.094">-5</text>
</g>
<g clip-path="url(#clip4800)">
<text style="fill:#000000; fill-opacity:1; font-family:Arial,Helvetica Neue,Helvetica,sans-serif; font-size:48px; text-anchor:end;" transform="rotate(0, 179.721, 340.419)" x="179.721" y="340.419">-4</text>
</g>
<g clip-path="url(#clip4800)">
<text style="fill:#000000; fill-opacity:1; font-family:Arial,Helvetica Neue,Helvetica,sans-serif; font-size:48px; text-anchor:end;" transform="rotate(0, 179.721, 64.7441)" x="179.721" y="64.7441">-3</text>
</g>
<g clip-path="url(#clip4800)">
<text style="fill:#000000; fill-opacity:1; font-family:Arial,Helvetica Neue,Helvetica,sans-serif; font-size:66px; text-anchor:middle;" transform="rotate(0, 1278.24, 1559.48)" x="1278.24" y="1559.48">Iteration</text>
</g>
<g clip-path="url(#clip4800)">
<text style="fill:#000000; fill-opacity:1; font-family:Arial,Helvetica Neue,Helvetica,sans-serif; font-size:66px; text-anchor:middle;" transform="rotate(-90, 89.2861, 736.431)" x="89.2861" y="736.431">Log Relative Error</text>
</g>
<polyline clip-path="url(#clip4802)" style="stroke:#009af9; stroke-width:4; stroke-opacity:1; fill:none" points="
  -860.052,-956.277 -854.679,-667.186 -849.307,-712.875 -843.934,-768.286 -838.561,-764.971 -833.189,-911.886 -827.816,-1169.89 -822.444,-686.199 -817.071,-654.254 -811.698,-715.897 
  -806.326,-747.51 -800.953,-620.82 -795.581,-585.427 -790.208,-632.999 -784.836,-540.41 -779.463,-689.139 -774.09,-602.761 -768.718,-489.771 -763.345,-483.348 -757.973,-468.336 
  -752.6,-555.001 -747.227,-58.5326 -741.855,-504.792 -736.482,-444.689 -731.11,-445.809 -725.737,-370.186 -720.364,-246.692 -714.992,429.772 -709.619,-369.324 -704.247,-30.5157 
  -698.874,-120.04 -693.502,-124.518 -688.129,-284.911 -682.756,-308.617 -677.384,-282.292 -672.011,-311.702 -666.639,-289.153 -661.266,-82.5728 -655.893,-135.338 -650.521,-294.311 
  -645.148,43.4205 -639.776,-164.827 -634.403,-270.506 -629.03,-90.0246 -623.658,-119.188 -618.285,-230.33 -612.913,-40.7015 -607.54,-260.591 -602.168,-42.6007 -596.795,101.956 
  -591.422,-218.941 -586.05,326.477 -580.677,-0.413073 -575.305,-126.384 -569.932,163.524 -564.559,-43.7445 -559.187,-48.8753 -553.814,140.791 -548.442,-34.1387 -543.069,-144.006 
  -537.697,-99.609 -532.324,-165.653 -526.951,201.655 -521.579,-123.978 -516.206,260.392 -510.834,-136.183 -505.461,-69.753 -500.088,-168.048 -494.716,210.693 -489.343,-18.9638 
  -483.971,-69.8583 -478.598,-18.6314 -473.225,-27.9425 -467.853,44.1512 -462.48,-78.9142 -457.108,22.2473 -451.735,177.099 -446.363,-109.177 -440.99,291.502 -435.617,66.6326 
  -430.245,72.5526 -424.872,-57.3541 -419.5,91.1558 -414.127,144.286 -408.754,14.6814 -403.382,12.2599 -398.009,-24.5515 -392.637,-34.5131 -387.264,-101.83 -381.891,-25.2759 
  -376.519,-11.4522 -371.146,35.3978 -365.774,11.6155 -360.401,52.4364 -355.029,62.0271 -349.656,83.9692 -344.283,225.94 -338.911,88.9997 -333.538,-20.7375 -328.166,186.586 
  -322.793,150.961 -317.42,80.2033 -312.048,226.669 -306.675,157.623 -301.303,101.803 -295.93,206.522 -290.557,336.89 -285.185,394.712 -279.812,32.6737 -274.44,64.7208 
  -269.067,45.0053 -263.695,163.094 -258.322,363.903 -252.949,418.725 -247.577,111.515 -242.204,352.361 -236.832,126.06 -231.459,37.8665 -226.086,93.6703 -220.714,388.944 
  -215.341,-31.5005 -209.969,146.025 -204.596,331.844 -199.223,277.018 -193.851,285.915 -188.478,153.918 -183.106,228.335 -177.733,157.702 -172.361,181.58 -166.988,-10.8122 
  -161.615,182.445 -156.243,142.241 -150.87,139.289 -145.498,114.345 -140.125,128.354 -134.752,187.536 -129.38,141.57 -124.007,231.142 -118.635,153.406 -113.262,111.7 
  -107.889,398.59 -102.517,209.915 -97.1443,91.0527 -91.7717,102.562 -86.3991,162.157 -81.0265,175.935 -75.6539,303.722 -70.2813,96.4552 -64.9087,363.849 -59.5362,-7.65176 
  -54.1636,319.905 -48.791,87.2931 -43.4184,176.118 -38.0458,405.675 -32.6732,180.742 -27.3006,147.579 -21.928,185.677 -16.5555,144.311 -11.1829,153.069 -5.81028,223.814 
  -0.43769,275.243 4.9349,241.212 10.3075,392.842 15.6801,186.419 21.0527,121.15 26.4253,171.755 31.7978,437.659 37.1704,124.275 42.543,55.9631 47.9156,461.671 
  53.2882,587.799 58.6608,189.364 64.0334,207.708 69.406,321.943 74.7785,258.317 80.1511,431.177 85.5237,524.653 90.8963,83.4525 96.2689,249.716 101.641,157.186 
  107.014,125.212 112.387,166.653 117.759,458.104 123.132,337.288 128.504,102.946 133.877,462.715 139.25,229.726 144.622,314.552 149.995,255.681 155.367,212.958 
  160.74,188.739 166.113,281.161 171.485,343.02 176.858,301.587 182.23,156.15 187.603,124.103 192.975,168.208 198.348,137.074 203.721,175.024 209.093,299.942 
  214.466,229.591 219.838,336.202 225.211,134.043 230.584,212.876 235.956,174.094 241.329,337.458 246.701,323.123 252.074,312.7 257.447,374.015 262.819,156.522 
  268.192,147.04 273.564,181.884 278.937,170.87 284.309,182.443 289.682,239.061 295.055,229.959 300.427,173.642 305.8,196.441 311.172,393.075 316.545,343.972 
  321.918,220.644 327.29,265.189 332.663,136.563 338.035,270.142 343.408,276.908 348.781,193.035 354.153,382.353 359.526,386.693 364.898,168.806 370.271,305.709 
  375.643,249.971 381.016,299.809 386.389,471.997 391.761,666.246 397.134,455.818 402.506,229.859 407.879,164.11 413.252,377.444 418.624,428.319 423.997,189.42 
  429.369,416.446 434.742,289.673 440.115,322.751 445.487,198.874 450.86,808.482 456.232,439.971 461.605,253.985 466.977,237.607 472.35,240.944 477.723,261.155 
  483.095,311.295 488.468,351.955 493.84,206.824 499.213,267.895 504.586,313.893 509.958,279.987 515.331,466.408 520.703,276.794 526.076,901.858 531.449,264.986 
  536.821,384.118 542.194,347.924 547.566,225.265 552.939,253.01 558.311,302.827 563.684,224.521 569.057,347.868 574.429,423.712 579.802,401.309 585.174,342.161 
  590.547,279.254 595.92,373.143 601.292,357.604 606.665,579.012 612.037,572.907 617.41,271.775 622.783,338.22 628.155,368.462 633.528,300.071 638.9,474.927 
  644.273,220.499 649.645,514.755 655.018,305.224 660.391,498.589 665.763,269.374 671.136,344.772 676.508,327.559 681.881,511.743 687.254,283.253 692.626,309.273 
  697.999,453.13 703.371,548.967 708.744,394.706 714.117,290.549 719.489,315.732 724.862,516.46 730.234,412.098 735.607,272.276 740.979,274.257 746.352,546.879 
  751.725,359.283 757.097,294.291 762.47,253.763 767.842,215.832 773.215,279.62 778.588,383.293 783.96,385.922 789.333,309.456 794.705,265.105 800.078,313.477 
  805.451,264.791 810.823,293.367 816.196,401.38 821.568,286.321 826.941,385.02 832.313,372.174 837.686,388.735 843.059,425.207 848.431,289.083 853.804,535.121 
  859.176,327.671 864.549,377.156 869.922,505.782 875.294,332.542 880.667,388.909 886.039,378.718 891.412,375.056 896.785,432.173 902.157,308.809 907.53,269.112 
  912.902,314.626 918.275,293.996 923.647,494.374 929.02,385.103 934.393,256.287 939.765,595.901 945.138,330.499 950.51,404.734 955.883,416.064 961.256,424.643 
  966.628,375.252 972.001,409.033 977.373,265.747 982.746,898.173 988.119,408.339 993.491,369.036 998.864,267.667 1004.24,335.551 1009.61,448.018 1014.98,393.68 
  1020.35,382.822 1025.73,334.081 1031.1,360.324 1036.47,737.282 1041.84,340.569 1047.22,404.913 1052.59,297.291 1057.96,856.352 1063.33,413.965 1068.71,419.051 
  1074.08,230.608 1079.45,424.366 1084.83,284.221 1090.2,663.649 1095.57,267.734 1100.94,444.943 1106.32,352.767 1111.69,512.58 1117.06,278.047 1122.43,369.746 
  1127.81,390.499 1133.18,371.882 1138.55,380.796 1143.92,543.762 1149.3,365.274 1154.67,543.184 1160.04,334.171 1165.41,341.602 1170.79,312.455 1176.16,406.093 
  1181.53,524.346 1186.9,439.003 1192.28,691.506 1197.65,386.253 1203.02,316.006 1208.39,556.736 1213.77,446.331 1219.14,609.143 1224.51,584.047 1229.88,376.213 
  1235.26,469.523 1240.63,345.576 1246,639.904 1251.38,427.757 1256.75,377.688 1262.12,356.387 1267.49,356.052 1272.87,497.621 1278.24,331.865 1283.61,291.318 
  1288.98,485.998 1294.36,332.218 1299.73,404.134 1305.1,464.083 1310.47,316.488 1315.85,407.258 1321.22,338.692 1326.59,510.014 1331.96,285.071 1337.34,503.052 
  1342.71,319.708 1348.08,291.753 1353.45,293.459 1358.83,366.464 1364.2,414.509 1369.57,360.528 1374.94,547.838 1380.32,642.976 1385.69,324.054 1391.06,431.479 
  1396.44,368.272 1401.81,361.579 1407.18,891.018 1412.55,500.366 1417.93,240.652 1423.3,346.732 1428.67,500.962 1434.04,512.487 1439.42,648.8 1444.79,792.752 
  1450.16,303.082 1455.53,395.463 1460.91,520.094 1466.28,722.872 1471.65,470.342 1477.02,422.75 1482.4,305.73 1487.77,663.548 1493.14,342.548 1498.51,397.533 
  1503.89,410.339 1509.26,342.827 1514.63,422.234 1520,375.375 1525.38,368.398 1530.75,443.291 1536.12,355.513 1541.5,388.197 1546.87,444.172 1552.24,691.964 
  1557.61,340.653 1562.99,318.691 1568.36,540.864 1573.73,528.937 1579.1,354.027 1584.48,588.009 1589.85,400.635 1595.22,441.111 1600.59,288.534 1605.97,331.261 
  1611.34,686.785 1616.71,339.687 1622.08,390.283 1627.46,406.004 1632.83,722.713 1638.2,501.781 1643.57,325.316 1648.95,549.637 1654.32,737.336 1659.69,508.271 
  1665.06,744.747 1670.44,514.816 1675.81,350.613 1681.18,354.972 1686.55,400.695 1691.93,565.973 1697.3,325.401 1702.67,310.553 1708.05,432.515 1713.42,355.773 
  1718.79,683.862 1724.16,343.212 1729.54,642.968 1734.91,584.233 1740.28,432.142 1745.65,510.07 1751.03,541.984 1756.4,402.836 1761.77,408.263 1767.14,598.763 
  1772.52,356.834 1777.89,496.74 1783.26,392.242 1788.63,319.393 1794.01,471.625 1799.38,457.845 1804.75,621.962 1810.12,407.753 1815.5,402.153 1820.87,372.243 
  1826.24,572.938 1831.61,782.839 1836.99,534.467 1842.36,409.281 1847.73,669.946 1853.11,366.902 1858.48,445.205 1863.85,503.117 1869.22,415.338 1874.6,501.678 
  1879.97,738.411 1885.34,444.856 1890.71,820.007 1896.09,495.679 1901.46,571.582 1906.83,415.833 1912.2,467.702 1917.58,726.206 1922.95,400.421 1928.32,771.263 
  1933.69,519.377 1939.07,768.217 1944.44,554.32 1949.81,481.999 1955.18,408.333 1960.56,591.721 1965.93,445.811 1971.3,861.801 1976.67,551.964 1982.05,389.255 
  1987.42,403.171 1992.79,543.479 1998.17,433.334 2003.54,449.851 2008.91,505.433 2014.28,493.845 2019.66,625.271 2025.03,634.493 2030.4,471.483 2035.77,400.342 
  2041.15,523.968 2046.52,414.106 2051.89,492.262 2057.26,308.786 2062.64,390.575 2068.01,698.724 2073.38,497.114 2078.75,341.378 2084.13,611.727 2089.5,630.049 
  2094.87,395.883 2100.24,1076.35 2105.62,574.468 2110.99,541.681 2116.36,450.026 2121.73,421.964 2127.11,585.619 2132.48,383.881 2137.85,527.714 2143.22,477.348 
  2148.6,368.723 2153.97,653.4 2159.34,470.491 2164.72,617.88 2170.09,552.855 2175.46,648.709 2180.83,356.418 2186.21,465.793 2191.58,879.487 2196.95,546.195 
  2202.32,509.513 2207.7,456.471 2213.07,455.398 2218.44,428.664 2223.81,478.748 2229.19,523.532 2234.56,449.692 2239.93,584.982 2245.3,405.669 2250.68,462.542 
  2256.05,546.833 2261.42,413.311 2266.79,448.825 2272.17,555.715 2277.54,466.811 2282.91,618.499 2288.28,990.791 2293.66,419.266 2299.03,510.324 2304.4,401.485 
  2309.78,398.098 2315.15,723.784 2320.52,584.305 2325.89,328.528 2331.27,360.583 2336.64,574.933 2342.01,424.717 2347.38,369.728 2352.76,347.283 2358.13,509.83 
  2363.5,501.257 2368.87,474.326 2374.25,369.661 2379.62,420.645 2384.99,483.173 2390.36,537.882 2395.74,418.94 2401.11,429.199 2406.48,453.276 2411.85,663.958 
  2417.23,345.562 2422.6,388.894 2427.97,494.825 2433.34,524.787 2438.72,456.583 2444.09,488.085 2449.46,789.108 2454.84,473.417 2460.21,431.295 2465.58,376.587 
  2470.95,423.434 2476.33,410.075 2481.7,401.628 2487.07,353.65 2492.44,396.387 2497.82,505.723 2503.19,488.687 2508.56,914.42 2513.93,684.234 2519.31,426.977 
  2524.68,356.517 2530.05,594.88 2535.42,558.606 2540.8,399.861 2546.17,657.448 2551.54,610.943 2556.91,492.923 2562.29,416.685 2567.66,859.856 2573.03,772.891 
  2578.4,550.362 2583.78,432.248 2589.15,456.221 2594.52,430.31 2599.89,419.766 2605.27,720.929 2610.64,716.712 2616.01,439.274 2621.39,374.253 2626.76,431.187 
  2632.13,628.542 2637.5,831.069 2642.88,420.912 2648.25,431.398 2653.62,445.961 2658.99,549.194 2664.37,392.988 2669.74,390.021 2675.11,561.528 2680.48,444.822 
  2685.86,579.761 2691.23,465.633 2696.6,405.656 2701.97,703.389 2707.35,546.319 2712.72,392.725 2718.09,401.575 2723.46,434.85 2728.84,392.28 2734.21,486.412 
  2739.58,404.821 2744.95,408.978 2750.33,532.798 2755.7,375.144 2761.07,1084.07 2766.45,542.044 2771.82,406.32 2777.19,532.907 2782.56,664.801 2787.94,410.142 
  2793.31,375.958 2798.68,596.145 2804.05,468.484 2809.43,622.936 2814.8,751.757 2820.17,457.233 2825.54,512.882 2830.92,668.137 2836.29,427.793 2841.66,584.016 
  2847.03,454.793 2852.41,512.281 2857.78,1198.45 2863.15,381.653 2868.52,400.582 2873.9,483.209 2879.27,444.223 2884.64,430.235 2890.01,404.361 2895.39,416.441 
  2900.76,480.882 2906.13,441.98 2911.51,502.405 2916.88,515.877 2922.25,390.784 2927.62,420.278 2933,412.323 2938.37,361.956 2943.74,907.457 2949.11,399.957 
  2954.49,481.286 2959.86,411.719 2965.23,430.794 2970.6,639.919 2975.98,581.526 2981.35,504.387 2986.72,401.939 2992.09,746.295 2997.47,402.929 3002.84,471.57 
  3008.21,501.326 3013.58,506.322 3018.96,905.697 3024.33,991.747 3029.7,382.994 3035.07,442.45 3040.45,513.221 3045.82,415.391 3051.19,403.408 3056.56,507.694 
  3061.94,733.992 3067.31,495.402 3072.68,441.946 3078.06,568.664 3083.43,464.151 3088.8,705.865 3094.17,306.664 3099.55,462.987 3104.92,526.603 3110.29,481.875 
  3115.66,520.997 3121.04,422.458 3126.41,540.439 3131.78,557.075 3137.15,587.159 3142.53,616.527 3147.9,446.008 3153.27,713.127 3158.64,359.04 3164.02,450.697 
  3169.39,424.323 3174.76,629.907 3180.13,686.176 3185.51,441.561 3190.88,396.068 3196.25,488.581 3201.62,547.77 3207,460.997 3212.37,913.743 3217.74,455.825 
  3223.12,435.34 3228.49,423.613 3233.86,591.499 3239.23,433.036 3244.61,349.057 3249.98,475.603 3255.35,537.409 3260.72,481.879 3266.1,683.399 3271.47,494.715 
  3276.84,469.697 3282.21,726.838 3287.59,647.618 3292.96,579.141 3298.33,330.666 3303.7,427.899 3309.08,477.822 3314.45,380.221 3319.82,520.641 3325.19,501.372 
  3330.57,620.506 3335.94,446.164 3341.31,539.416 3346.68,512.402 3352.06,934.787 3357.43,416.974 3362.8,425.49 3368.18,518.324 3373.55,506.708 3378.92,601.555 
  3384.29,384.862 3389.67,1080.4 3395.04,671.322 3400.41,556.911 3405.78,946.645 3411.16,519.905 3416.53,407.096 3421.9,499.845 3427.27,485.919 3432.65,627.15 
  3438.02,407.846 3443.39,683.718 3448.76,399.955 3454.14,447.981 3459.51,773.492 3464.88,598.396 3470.25,628.717 3475.63,531.346 3481,1374.98 3486.37,617.333 
  3491.74,775.14 3497.12,702.233 3502.49,405.666 3507.86,389.37 3513.23,403.664 3518.61,426.134 3523.98,527.766 3529.35,387.428 3534.73,695.288 3540.1,426.597 
  3545.47,502.882 3550.84,611.413 3556.22,575.349 3561.59,510.614 3566.96,446.694 3572.33,452.719 3577.71,440.399 3583.08,650.252 3588.45,636.893 3593.82,509.363 
  3599.2,503.019 3604.57,380.006 3609.94,465.46 3615.31,365.287 3620.69,504.694 3626.06,333.171 3631.43,607.841 3636.8,499.112 3642.18,379.249 3647.55,576.096 
  3652.92,479.068 3658.29,437.967 3663.67,451.979 3669.04,516.818 3674.41,675.017 3679.79,458.221 3685.16,482.989 3690.53,484.141 3695.9,762.223 3701.28,521.076 
  3706.65,513.463 3712.02,587.476 3717.39,432.175 3722.77,817.438 3728.14,415.648 3733.51,499.793 3738.88,735.414 3744.26,513.239 3749.63,427.559 3755,585 
  3760.37,382.958 3765.75,407.926 3771.12,762.656 3776.49,507.327 3781.86,479.19 3787.24,467.811 3792.61,442.76 3797.98,451.009 3803.35,714.506 3808.73,757.25 
  3814.1,481.269 3819.47,571.823 3824.85,463.106 3830.22,522.67 3835.59,582.35 3840.96,486.849 3846.34,557.117 3851.71,555.557 3857.08,547.912 3862.45,523.131 
  3867.83,818.337 3873.2,497.184 3878.57,388.019 3883.94,379.348 3889.32,579.271 3894.69,518.947 3900.06,524.495 3905.43,393.601 3910.81,846.284 3916.18,349.491 
  3921.55,414.424 3926.92,530.921 3932.3,479.112 3937.67,949.795 3943.04,535.532 3948.41,431.602 3953.79,594.055 3959.16,1219.8 3964.53,450.335 3969.9,721.329 
  3975.28,349.012 3980.65,385.186 3986.02,672.021 3991.4,697.537 3996.77,633.144 4002.14,802.399 4007.51,440.702 4012.89,385.117 4018.26,509.4 4023.63,981.013 
  4029,671.091 4034.38,440.821 4039.75,460.955 4045.12,529.355 4050.49,400.684 4055.87,680.945 4061.24,387.683 4066.61,367.923 4071.98,880.735 4077.36,562.909 
  4082.73,607.899 4088.1,691.826 4093.47,546.55 4098.85,546 4104.22,482.181 4109.59,488.279 4114.96,412.018 4120.34,482.399 4125.71,650.943 4131.08,506.044 
  4136.46,395.541 4141.83,436.277 4147.2,414.672 4152.57,464.88 4157.95,457.303 4163.32,393.416 4168.69,777.729 4174.06,485.354 4179.44,436.588 4184.81,550.169 
  4190.18,649.776 4195.55,413.524 4200.93,650.646 4206.3,764.45 4211.67,410.211 4217.04,528.539 4222.42,411.505 4227.79,439.921 4233.16,527.095 4238.53,690.076 
  4243.91,458.917 4249.28,398.898 4254.65,506.459 4260.02,775.532 4265.4,817.057 4270.77,573.825 4276.14,405.695 4281.52,528.706 4286.89,446.29 4292.26,378.232 
  4297.63,595.365 4303.01,767.662 4308.38,419.259 4313.75,596.503 4319.12,426.119 4324.5,655.723 4329.87,524.29 4335.24,485.127 4340.61,426.199 4345.99,598.886 
  4351.36,341.337 4356.73,527.53 4362.1,436.415 4367.48,549.771 4372.85,692.77 4378.22,359.266 4383.59,509.328 4388.97,462.994 4394.34,587.423 4399.71,673.785 
  4405.08,553.871 4410.46,380.292 4415.83,524.048 4421.2,377.5 4426.57,370.424 4431.95,421.56 4437.32,396.3 4442.69,423.087 4448.07,555.248 4453.44,583.718 
  4458.81,424.763 4464.18,431.67 4469.56,361.239 4474.93,628.835 4480.3,532.493 4485.67,659.787 4491.05,361.373 4496.42,460.835 4501.79,522.149 4507.16,349.709 
  4512.54,658.626 4517.91,641.829 4523.28,574.384 4528.65,536.301 4534.03,371.367 4539.4,429.812 4544.77,458.088 4550.14,493.764 4555.52,562.77 4560.89,358.183 
  4566.26,917.905 4571.63,363.954 4577.01,451.394 4582.38,620.969 4587.75,646.903 4593.13,531.64 4598.5,553.508 4603.87,520.958 4609.24,674.246 4614.62,683.845 
  4619.99,506.375 4625.36,467.926 4630.73,641.653 4636.11,572.857 4641.48,421.105 4646.85,454.993 4652.22,484.483 4657.6,508.097 4662.97,450.572 4668.34,382.101 
  4673.71,372.781 4679.09,444.398 4684.46,403.155 4689.83,501.881 4695.2,721.258 4700.58,715.004 4705.95,469.044 4711.32,347.764 4716.69,405.643 4722.07,451.449 
  4727.44,663.958 4732.81,529.089 4738.19,405.771 4743.56,478.714 4748.93,803.485 4754.3,439.043 4759.68,400.946 4765.05,625.779 4770.42,674.094 4775.79,427.47 
  4781.17,511.941 4786.54,344.07 4791.91,999.771 4797.28,447.845 4802.66,553.901 4808.03,437.595 4813.4,628.47 4818.77,376.745 4824.15,564.977 4829.52,425.307 
  4834.89,418.683 4840.26,403.65 4845.64,527.942 4851.01,577.258 4856.38,443.641 4861.75,501.18 4867.13,349.591 4872.5,386.381 4877.87,393.013 4883.24,641.913 
  4888.62,465.352 4893.99,730.155 4899.36,525.781 4904.74,389.463 4910.11,444.244 4915.48,419.931 4920.85,391.376 4926.23,538.142 4931.6,646.047 4936.97,436.328 
  4942.34,455.852 4947.72,556.721 4953.09,419.685 4958.46,597.54 4963.83,459.554 4969.21,348.229 4974.58,407.897 4979.95,462.978 4985.32,1075.67 4990.7,515.139 
  4996.07,417.541 5001.44,453.052 5006.81,344.505 5012.19,524.489 5017.56,336.158 5022.93,720.09 5028.3,447.806 5033.68,431.643 5039.05,414.405 5044.42,449.807 
  5049.8,430.688 5055.17,465.525 5060.54,491.981 5065.91,419.113 5071.29,454.634 5076.66,376.663 5082.03,815.794 5087.4,638.509 5092.78,647.186 5098.15,331.518 
  5103.52,538.05 5108.89,520.123 5114.27,893.184 5119.64,677.309 5125.01,572.422 5130.38,817.992 5135.76,442.953 5141.13,452.935 5146.5,645.664 5151.87,470.913 
  5157.25,453.664 5162.62,426.742 5167.99,836.176 5173.36,373.235 5178.74,486.548 5184.11,560.08 5189.48,502.673 5194.86,381.239 5200.23,375.194 5205.6,321.794 
  5210.97,440.154 5216.35,849.352 5221.72,404.673 5227.09,430.975 5232.46,441.165 5237.84,616.976 5243.21,427.068 5248.58,529.166 5253.95,855.855 5259.33,492.688 
  5264.7,544.747 5270.07,474.759 5275.44,352.967 5280.82,368.379 5286.19,1006.46 5291.56,432.363 5296.93,483.654 5302.31,579.081 5307.68,398.846 5313.05,468.279 
  5318.42,356.768 5323.8,555.051 5329.17,353.088 5334.54,480.213 5339.91,472.607 5345.29,522.357 5350.66,478.873 5356.03,488.76 5361.41,433.877 5366.78,574.12 
  5372.15,623.233 5377.52,618.099 5382.9,515.844 5388.27,408.185 5393.64,394.378 5399.01,743.121 5404.39,367.813 5409.76,411.227 5415.13,727.036 5420.5,445.125 
  5425.88,685.285 5431.25,412.928 5436.62,366.301 5441.99,686.694 5447.37,622.412 5452.74,282.56 5458.11,452.568 5463.48,497.466 5468.86,484.246 5474.23,602.404 
  5479.6,305.201 5484.97,494.407 5490.35,363.327 5495.72,1284.23 5501.09,469.843 5506.47,417.383 5511.84,847.186 5517.21,549.327 5522.58,508.454 5527.96,926.139 
  5533.33,668.318 5538.7,469.359 5544.07,639.88 5549.45,589.42 5554.82,501.73 5560.19,503.458 5565.56,371.119 5570.94,660.571 5576.31,723.226 
  "/>
<polyline clip-path="url(#clip4802)" style="stroke:#e26f46; stroke-width:4; stroke-opacity:1; fill:none" points="
  -865.424,-852.665 -860.052,-860.076 -854.679,-865.951 -849.307,-876.194 -843.934,-886.46 -838.561,-897.35 -833.189,-913.684 -827.816,-930.023 -822.444,-939.885 -817.071,-953.349 
  -811.698,-938.368 -806.326,-878.738 -800.953,-851.089 -795.581,-803.218 -790.208,-754.68 -784.836,-716.153 -779.463,-676.241 -774.09,-625.733 -768.718,-593.609 -763.345,-548.477 
  -757.973,-542.688 -752.6,-511.934 -747.227,-519.62 -741.855,-450.485 -736.482,-403.676 -731.11,-345.357 -725.737,-308.369 -720.364,-288.27 -714.992,-292.244 -709.619,-244.786 
  -704.247,-243.259 -698.874,-230.868 -693.502,-248.607 -688.129,-222.649 -682.756,-195.516 -677.384,-167.581 -672.011,-120.049 -666.639,-73.0028 -661.266,-72.3472 -655.893,-60.5952 
  -650.521,-11.0993 -645.148,-23.3373 -639.776,4.57899 -634.403,19.7352 -629.03,44.7526 -623.658,35.0079 -618.285,35.3918 -612.913,59.216 -607.54,139.123 -602.168,170.631 
  -596.795,180.316 -591.422,279.888 -586.05,266.263 -580.677,250.409 -575.305,232.998 -569.932,241.762 -564.559,293.941 -559.187,250.073 -553.814,272.104 -548.442,249.955 
  -543.069,276.152 -537.697,228.017 -532.324,227.393 -526.951,216.543 -521.579,173.526 -516.206,160.001 -510.834,211.985 -505.461,174.477 -500.088,190.515 -494.716,201.601 
  -489.343,170.669 -483.971,189.501 -478.598,223.597 -473.225,244.541 -467.853,255.887 -462.48,308.939 -457.108,271.193 -451.735,249.583 -446.363,319.507 -440.99,334.566 
  -435.617,331.134 -430.245,337.374 -424.872,400.669 -419.5,415.32 -414.127,379.488 -408.754,392.525 -403.382,350.965 -398.009,350.287 -392.637,416.401 -387.264,552.723 
  -381.891,621.983 -376.519,540.778 -371.146,469.104 -365.774,410.092 -360.401,412.571 -355.029,408.705 -349.656,402.316 -344.283,392.543 -338.911,439.134 -333.538,530.173 
  -328.166,488.631 -322.793,473.868 -317.42,458.031 -312.048,489.345 -306.675,447.67 -301.303,504.224 -295.93,516.368 -290.557,491.396 -285.185,485.062 -279.812,515.312 
  -274.44,563.564 -269.067,564.809 -263.695,578.246 -258.322,551.71 -252.949,531.813 -247.577,532.237 -242.204,538.026 -236.832,573.678 -231.459,627.784 -226.086,715.28 
  -220.714,674.988 -215.341,696.449 -209.969,653.937 -204.596,632.78 -199.223,601.544 -193.851,610.474 -188.478,542.399 -183.106,496.56 -177.733,458.538 -172.361,484.014 
  -166.988,543.245 -161.615,525.912 -156.243,575.375 -150.87,612.305 -145.498,569.425 -140.125,514.4 -134.752,550.768 -129.38,615.072 -124.007,559.235 -118.635,496.512 
  -113.262,532.896 -107.889,546.671 -102.517,497.977 -97.1443,503.129 -91.7717,542.872 -86.3991,597.83 -81.0265,531.156 -75.6539,494.787 -70.2813,550.155 -64.9087,536.944 
  -59.5362,644.304 -54.1636,684.696 -48.791,627.697 -43.4184,700.836 -38.0458,686.89 -32.6732,789.247 -27.3006,935.028 -21.928,1052.01 -16.5555,894.948 -11.1829,822.453 
  -5.81028,796.375 -0.43769,882.755 4.9349,930.636 10.3075,897.059 15.6801,974.447 21.0527,879.36 26.4253,791.122 31.7978,801.676 37.1704,668.587 42.543,855.18 
  47.9156,897.064 53.2882,942.757 58.6608,787.075 64.0334,743.263 69.406,728.53 74.7785,665.577 80.1511,699.474 85.5237,670.484 90.8963,783.533 96.2689,910.962 
  101.641,979.767 107.014,901.069 112.387,849.374 117.759,862.513 123.132,777.131 128.504,696.313 133.877,731.393 139.25,735.95 144.622,679.945 149.995,717.921 
  155.367,710.611 160.74,765.516 166.113,847.064 171.485,954.46 176.858,852.341 182.23,1121.22 187.603,945.726 192.975,1017.65 198.348,1038.81 203.721,820.844 
  209.093,833.429 214.466,771.579 219.838,712.867 225.211,613.365 230.584,559.978 235.956,610.328 241.329,575.281 246.701,608.025 252.074,576.183 257.447,542.777 
  262.819,607.095 268.192,689.232 273.564,797.353 278.937,968.355 284.309,1154.18 289.682,1085.1 295.055,1130.57 300.427,971.715 305.8,806.793 311.172,865.04 
  316.545,978.192 321.918,1042.51 327.29,883.456 332.663,830.278 338.035,857.404 343.408,930.336 348.781,795.921 354.153,761.238 359.526,709.467 364.898,643.723 
  370.271,649.908 375.643,643.362 381.016,700.452 386.389,692.259 391.761,694.279 397.134,670.651 402.506,739.813 407.879,660.666 413.252,704.968 418.624,665.559 
  423.997,726.135 429.369,682.173 434.742,689.669 440.115,657.539 445.487,607.326 450.86,598.425 456.232,581.269 461.605,629.704 466.977,689.548 472.35,706.876 
  477.723,773.128 483.095,784.308 488.468,865.536 493.84,839.778 499.213,766.383 504.586,845.846 509.958,982.257 515.331,1080.08 520.703,921.662 526.076,902.081 
  531.449,880.18 536.821,976.22 542.194,880.247 547.566,1104.46 552.939,986.039 558.311,880.786 563.684,1042.56 569.057,911.021 574.429,859.562 579.802,798.564 
  585.174,807.85 590.547,790.396 595.92,766.105 601.292,716.122 606.665,737.387 612.037,757.975 617.41,837.375 622.783,830.151 628.155,767.68 633.528,858.563 
  638.9,808.071 644.273,702.097 649.645,730.833 655.018,790.114 660.391,828.025 665.763,806.009 671.136,757.505 676.508,799.264 681.881,767.737 687.254,868.582 
  692.626,950.409 697.999,873.533 703.371,831.725 708.744,828.996 714.117,879.489 719.489,781.641 724.862,745.351 730.234,777.08 735.607,765.731 740.979,869.757 
  746.352,881.451 751.725,891.807 757.097,866.675 762.47,1048.67 767.842,1158.67 773.215,946.187 778.588,1015.07 783.96,952.734 789.333,820.046 794.705,827.988 
  800.078,751.994 805.451,796.192 810.823,728.112 816.196,720.173 821.568,752.186 826.941,692.994 832.313,645.408 837.686,677.403 843.059,662.302 848.431,705.764 
  853.804,716.13 859.176,680.367 864.549,632.904 869.922,628.824 875.294,632.408 880.667,662.001 886.039,700.925 891.412,702.087 896.785,739.339 902.157,815.344 
  907.53,948.404 912.902,832.012 918.275,894.853 923.647,947.477 929.02,856.244 934.393,962.492 939.765,979.047 945.138,948.53 950.51,860.235 955.883,929.447 
  961.256,1015.58 966.628,888.545 972.001,927.73 977.373,792.026 982.746,778.88 988.119,823.097 993.491,810.275 998.864,901.682 1004.24,852.545 1009.61,815.254 
  1014.98,858.353 1020.35,881.347 1025.73,887.878 1031.1,833.559 1036.47,812.506 1041.84,817.655 1047.22,752.89 1052.59,762.399 1057.96,762.854 1063.33,726.571 
  1068.71,680.042 1074.08,762.295 1079.45,793.843 1084.83,855.489 1090.2,825.986 1095.57,808.24 1100.94,840.47 1106.32,772.411 1111.69,795.088 1117.06,884.466 
  1122.43,991.538 1127.81,1071.2 1133.18,952.74 1138.55,937.534 1143.92,942.625 1149.3,840.457 1154.67,797.774 1160.04,788.522 1165.41,784.071 1170.79,866.16 
  1176.16,928.444 1181.53,891.467 1186.9,928.922 1192.28,896.602 1197.65,810.294 1203.02,785.894 1208.39,773.492 1213.77,824.455 1219.14,801.615 1224.51,795.141 
  1229.88,763.367 1235.26,772.534 1240.63,765.636 1246,744.536 1251.38,730.241 1256.75,693.699 1262.12,700.476 1267.49,717.064 1272.87,749.799 1278.24,694.058 
  1283.61,734.36 1288.98,747.016 1294.36,700.918 1299.73,687.448 1305.1,697.314 1310.47,750.637 1315.85,722.318 1321.22,738.714 1326.59,758.339 1331.96,810.486 
  1337.34,784.607 1342.71,765.414 1348.08,861.105 1353.45,910.61 1358.83,836.188 1364.2,897.659 1369.57,809.444 1374.94,824.496 1380.32,834.483 1385.69,801.617 
  1391.06,864.307 1396.44,799.724 1401.81,842.832 1407.18,834.978 1412.55,794.522 1417.93,896.338 1423.3,977.917 1428.67,909.979 1434.04,980.361 1439.42,939.535 
  1444.79,967.751 1450.16,920.133 1455.53,972.496 1460.91,1009.82 1466.28,1038.05 1471.65,945.531 1477.02,994.809 1482.4,1070.76 1487.77,1105.78 1493.14,942.843 
  1498.51,1031.47 1503.89,983.931 1509.26,1022.21 1514.63,1077.31 1520,960.008 1525.38,1113.36 1530.75,1059.96 1536.12,1291.94 1541.5,1147.56 1546.87,1005.54 
  1552.24,1051.06 1557.61,908.04 1562.99,835.284 1568.36,789.167 1573.73,759.677 1579.1,828.538 1584.48,793.847 1589.85,862.333 1595.22,938.325 1600.59,1059.13 
  1605.97,900.951 1611.34,866.868 1616.71,905.493 1622.08,890.053 1627.46,817.826 1632.83,802.274 1638.2,848.789 1643.57,863.584 1648.95,908.702 1654.32,886.738 
  1659.69,913.092 1665.06,901.447 1670.44,958.757 1675.81,1100.05 1681.18,1360.06 1686.55,1137.47 1691.93,1113.28 1697.3,1343.54 1702.67,1108.72 1708.05,1245.86 
  1713.42,1258.75 1718.79,1154.83 1724.16,1411.95 1729.54,1305.99 1734.91,1227.89 1740.28,1070.84 1745.65,976.355 1751.03,952.593 1756.4,854.883 1761.77,818.145 
  1767.14,814.702 1772.52,908.98 1777.89,852.041 1783.26,834.388 1788.63,954.083 1794.01,1002.77 1799.38,940.435 1804.75,990.333 1810.12,1015.38 1815.5,929.14 
  1820.87,950.088 1826.24,907.486 1831.61,885.8 1836.99,926.062 1842.36,903.686 1847.73,867.362 1853.11,883.648 1858.48,845.937 1863.85,823.728 1869.22,760.577 
  1874.6,799.81 1879.97,780.584 1885.34,832.025 1890.71,834.462 1896.09,877.69 1901.46,877.893 1906.83,838.484 1912.2,804.895 1917.58,803.29 1922.95,820.449 
  1928.32,811.004 1933.69,797.258 1939.07,778.104 1944.44,742.811 1949.81,733.156 1955.18,755.736 1960.56,782.115 1965.93,832.339 1971.3,835.656 1976.67,845.615 
  1982.05,871.382 1987.42,800.671 1992.79,838.03 1998.17,832.347 2003.54,836.51 2008.91,856.204 2014.28,900.11 2019.66,884.631 2025.03,904.7 2030.4,978.67 
  2035.77,1110.19 2041.15,1086.63 2046.52,1079.41 2051.89,1222.13 2057.26,1017.01 2062.64,1189.42 2068.01,1206.39 2073.38,1117.73 2078.75,966.231 2084.13,917.47 
  2089.5,883.278 2094.87,858.843 2100.24,860.442 2105.62,818.083 2110.99,854.675 2116.36,851.618 2121.73,865.486 2127.11,854.046 2132.48,889.268 2137.85,927.243 
  2143.22,854.276 2148.6,853.87 2153.97,828.081 2159.34,783.334 2164.72,808.078 2170.09,846.924 2175.46,818.899 2180.83,865.909 2186.21,812.027 2191.58,820.656 
  2196.95,831.925 2202.32,786.775 2207.7,756.705 2213.07,753.02 2218.44,727.97 2223.81,722.54 2229.19,699.611 2234.56,736.786 2239.93,740.763 2245.3,788.906 
  2250.68,839.247 2256.05,856.373 2261.42,947.153 2266.79,1026.46 2272.17,1091.36 2277.54,1079.15 2282.91,1079.46 2288.28,1099.63 2293.66,1292.9 2299.03,1163.39 
  2304.4,1122.36 2309.78,996.45 2315.15,1028.27 2320.52,1063.98 2325.89,1111.71 2331.27,1299.64 2336.64,1164.6 2342.01,1012.69 2347.38,912.252 2352.76,935.177 
  2358.13,986.916 2363.5,900.94 2368.87,955.124 2374.25,900.571 2379.62,841.617 2384.99,852.654 2390.36,802.535 2395.74,816.473 2401.11,878.424 2406.48,951.201 
  2411.85,986.47 2417.23,1047.56 2422.6,1209.92 2427.97,1047.79 2433.34,1087.83 2438.72,1293.13 2444.09,1131.65 2449.46,1182.3 2454.84,1342.2 2460.21,1132.81 
  2465.58,1003.28 2470.95,1173.2 2476.33,1054.7 2481.7,1021.06 2487.07,915.553 2492.44,830.64 2497.82,877.942 2503.19,917.047 2508.56,897.202 2513.93,921.071 
  2519.31,971.887 2524.68,1091.71 2530.05,1144.97 2535.42,1054.98 2540.8,1129.23 2546.17,1184.38 2551.54,1081.96 2556.91,1216.05 2562.29,1022.34 2567.66,1000.79 
  2573.03,1023.95 2578.4,960.996 2583.78,947.723 2589.15,959.412 2594.52,960.775 2599.89,871.729 2605.27,844.554 2610.64,831.449 2616.01,890.085 2621.39,1006.07 
  2626.76,1166.02 2632.13,1270.73 2637.5,1223.3 2642.88,1133.27 2648.25,1002.99 2653.62,994.352 2658.99,1006.49 2664.37,914.16 2669.74,998.715 2675.11,942.964 
  2680.48,1028.73 2685.86,1113.98 2691.23,997.861 2696.6,921.583 2701.97,885.974 2707.35,848.76 2712.72,879.289 2718.09,901.831 2723.46,938.935 2728.84,964.473 
  2734.21,903.902 2739.58,996.61 2744.95,928.617 2750.33,864.712 2755.7,891.443 2761.07,877.762 2766.45,831.982 2771.82,870.25 2777.19,921.888 2782.56,907.891 
  2787.94,1003.8 2793.31,949.019 2798.68,913.168 2804.05,968.23 2809.43,963.36 2814.8,932.14 2820.17,909.002 2825.54,929.888 2830.92,890.228 2836.29,969.346 
  2841.66,985.307 2847.03,934.141 2852.41,950.96 2857.78,940.017 2863.15,982.395 2868.52,1089.79 2873.9,1002.43 2879.27,965.479 2884.64,1071.49 2890.01,945.431 
  2895.39,902.174 2900.76,838.462 2906.13,885.278 2911.51,895.376 2916.88,924.864 2922.25,1009.61 2927.62,984.364 2933,1116.38 2938.37,999.431 2943.74,977.437 
  2949.11,1028.81 2954.49,954.847 2959.86,858.105 2965.23,848.694 2970.6,812.508 2975.98,780.558 2981.35,747.398 2986.72,745.205 2992.09,734.256 2997.47,723.887 
  3002.84,703.559 3008.21,690.764 3013.58,682.656 3018.96,684.407 3024.33,675.273 3029.7,718.194 3035.07,729.557 3040.45,693.795 3045.82,735.455 3051.19,763.659 
  3056.56,737.826 3061.94,732.264 3067.31,715.471 3072.68,755.087 3078.06,755.816 3083.43,712.167 3088.8,722.94 3094.17,799.758 3099.55,749.786 3104.92,781.498 
  3110.29,815.669 3115.66,773.511 3121.04,721.208 3126.41,705.299 3131.78,727.732 3137.15,735.779 3142.53,713.974 3147.9,733.412 3153.27,714.842 3158.64,739.089 
  3164.02,779.527 3169.39,731.097 3174.76,749.64 3180.13,762.547 3185.51,785.722 3190.88,788.812 3196.25,801.761 3201.62,787.241 3207,835.496 3212.37,825.977 
  3217.74,859.804 3223.12,829.45 3228.49,903.928 3233.86,874.885 3239.23,910.454 3244.61,1035.56 3249.98,979.696 3255.35,1063.57 3260.72,974.663 3266.1,959.303 
  3271.47,892.393 3276.84,859.186 3282.21,854.311 3287.59,887.052 3292.96,844.774 3298.33,955.988 3303.7,959.918 3309.08,1041.57 3314.45,1019.58 3319.82,968.499 
  3325.19,1064.16 3330.57,1010.51 3335.94,1028.16 3341.31,1090.18 3346.68,1216.47 3352.06,1209.93 3357.43,1201.12 3362.8,1225.47 3368.18,1274.98 3373.55,1254.46 
  3378.92,1156.46 3384.29,1005.31 3389.67,999.98 3395.04,972.15 3400.41,954.875 3405.78,962.793 3411.16,890.152 3416.53,983.319 3421.9,976.042 3427.27,973.542 
  3432.65,977.794 3438.02,1102.9 3443.39,1054.77 3448.76,921.737 3454.14,901.356 3459.51,913.751 3464.88,869.682 3470.25,899.728 3475.63,925.697 3481,917.11 
  3486.37,955.77 3491.74,959.512 3497.12,984.266 3502.49,1098.53 3507.86,1214.38 3513.23,1434.5 3518.61,1198.48 3523.98,1058.27 3529.35,995.608 3534.73,955.699 
  3540.1,895.755 3545.47,841.814 3550.84,803.051 3556.22,788.156 3561.59,754.174 3566.96,756.668 3572.33,759.42 3577.71,806.965 3583.08,828.841 3588.45,854.266 
  3593.82,867.883 3599.2,814.154 3604.57,878.765 3609.94,952.623 3615.31,1108.6 3620.69,1024.56 3626.06,1127.06 3631.43,1223.18 3636.8,1170.84 3642.18,1200.81 
  3647.55,1159.86 3652.92,1204.94 3658.29,1186.54 3663.67,1117.3 3669.04,1239.75 3674.41,1259.45 3679.79,1266.84 3685.16,1129.55 3690.53,995.973 3695.9,954.266 
  3701.28,922.532 3706.65,861.813 3712.02,895.637 3717.39,976.177 3722.77,943.045 3728.14,1011.3 3733.51,923.726 3738.88,897.552 3744.26,836.573 3749.63,884.655 
  3755,908.554 3760.37,982.48 3765.75,1089.57 3771.12,1136.01 3776.49,1010.84 3781.86,940.881 3787.24,906.094 3792.61,828.37 3797.98,802.491 3803.35,797.585 
  3808.73,789.167 3814.1,810.255 3819.47,794.798 3824.85,742.183 3830.22,714.876 3835.59,710.257 3840.96,705.722 3846.34,690.655 3851.71,708.216 3857.08,731.066 
  3862.45,741.876 3867.83,738.814 3873.2,774.346 3878.57,840.917 3883.94,883.053 3889.32,843.684 3894.69,895.888 3900.06,877.611 3905.43,903.405 3910.81,886.226 
  3916.18,1015.26 3921.55,940.49 3926.92,983.677 3932.3,962.609 3937.67,973.052 3943.04,910.513 3948.41,980.561 3953.79,1008.2 3959.16,1005.9 3964.53,1139.92 
  3969.9,1101.65 3975.28,1384.96 3980.65,1187.7 3986.02,1100.66 3991.4,1049.65 3996.77,1103.29 4002.14,1050.77 4007.51,928.47 4012.89,913.821 4018.26,967.771 
  4023.63,948.384 4029,900.497 4034.38,923.213 4039.75,869.749 4045.12,916.957 4050.49,871.068 4055.87,893.749 4061.24,833.114 4066.61,923.74 4071.98,921.808 
  4077.36,863.723 4082.73,899.087 4088.1,900.509 4093.47,892.631 4098.85,947.293 4104.22,920.206 4109.59,856.901 4114.96,928.376 4120.34,917.771 4125.71,892.392 
  4131.08,890.095 4136.46,994.646 4141.83,891.289 4147.2,946.803 4152.57,997.421 4157.95,1127.55 4163.32,1229.7 4168.69,1183.34 4174.06,1433.89 4179.44,1134.12 
  4184.81,1052.95 4190.18,1092.64 4195.55,1211.64 4200.93,1124.78 4206.3,1074.41 4211.67,938.059 4217.04,872.75 4222.42,847.572 4227.79,844.514 4233.16,818.831 
  4238.53,819.551 4243.91,819.116 4249.28,862.578 4254.65,869.53 4260.02,844.774 4265.4,827.217 4270.77,799.334 4276.14,865.101 4281.52,919.403 4286.89,1000.61 
  4292.26,901.52 4297.63,937.891 4303.01,914.975 4308.38,1027.89 4313.75,996.715 4319.12,1156.76 4324.5,1225.33 4329.87,1165 4335.24,1069.22 4340.61,1253.62 
  4345.99,1134.06 4351.36,1368.85 4356.73,1175.92 4362.1,1032.59 4367.48,1113.78 4372.85,1193.2 4378.22,1067.92 4383.59,1063.25 4388.97,1219.25 4394.34,1099.89 
  4399.71,1118.34 4405.08,1026 4410.46,1028.6 4415.83,941.739 4421.2,968.761 4426.57,911.022 4431.95,843.182 4437.32,814.831 4442.69,864.275 4448.07,873.704 
  4453.44,854.729 4458.81,929.26 4464.18,860.626 4469.56,946.49 4474.93,984.018 4480.3,916.549 4485.67,929.242 4491.05,1083.43 4496.42,1015.33 4501.79,977.562 
  4507.16,1127.63 4512.54,1212.88 4517.91,1140.65 4523.28,1040.45 4528.65,982.144 4534.03,898.593 4539.4,973.627 4544.77,899.957 4550.14,968.047 4555.52,1040.91 
  4560.89,1093.95 4566.26,1097.05 4571.63,1026.27 4577.01,954.837 4582.38,916.257 4587.75,875.588 4593.13,830.984 4598.5,820.225 4603.87,864.491 4609.24,876.083 
  4614.62,899.091 4619.99,882.148 4625.36,954.431 4630.73,917.839 4636.11,875.451 4641.48,933.793 4646.85,1035.73 4652.22,981.179 4657.6,1029.31 4662.97,932.868 
  4668.34,1002.22 4673.71,889.902 4679.09,930.413 4684.46,852.345 4689.83,836.362 4695.2,856.427 4700.58,854.478 4705.95,856.431 4711.32,976.147 4716.69,881.197 
  4722.07,814.726 4727.44,790.942 4732.81,826.518 4738.19,807.249 4743.56,779.532 4748.93,773.762 4754.3,727.009 4759.68,763.683 4765.05,751.692 4770.42,755.718 
  4775.79,809.418 4781.17,789.185 4786.54,879.609 4791.91,886.966 4797.28,967.827 4802.66,1039.41 4808.03,944.727 4813.4,902.926 4818.77,900.115 4824.15,948.627 
  4829.52,948.03 4834.89,1023.97 4840.26,1094.29 4845.64,1046.99 4851.01,1003.44 4856.38,1077.43 4861.75,996.09 4867.13,945.759 4872.5,1036.75 4877.87,912.943 
  4883.24,887.927 4888.62,947.044 4893.99,975.767 4899.36,1061.21 4904.74,1167.48 4910.11,1078.5 4915.48,961.304 4920.85,1113.16 4926.23,1051.96 4931.6,1038.07 
  4936.97,957.75 4942.34,960.688 4947.72,908.026 4953.09,963.21 4958.46,1010.68 4963.83,934.862 4969.21,872.931 4974.58,967.097 4979.95,884.155 4985.32,877.942 
  4990.7,824.331 4996.07,895.744 5001.44,865.316 5006.81,933.604 5012.19,873.525 5017.56,1010.52 5022.93,1007.06 5028.3,1121.29 5033.68,1037.26 5039.05,922.566 
  5044.42,951.952 5049.8,966.486 5055.17,916.421 5060.54,860.975 5065.91,892.211 5071.29,833.819 5076.66,915.665 5082.03,937.22 5087.4,911.389 5092.78,937.234 
  5098.15,954.621 5103.52,1021.8 5108.89,1125.72 5114.27,1121.73 5119.64,1180.74 5125.01,1081.08 5130.38,1090.64 5135.76,1014.23 5141.13,1047.09 5146.5,1051.15 
  5151.87,946.717 5157.25,1027.87 5162.62,1035.98 5167.99,1045.29 5173.36,1075.18 5178.74,1226.85 5184.11,1333.67 5189.48,1334.48 5194.86,1151.56 5200.23,989.33 
  5205.6,999.944 5210.97,941.231 5216.35,918.731 5221.72,1032.57 5227.09,1007.82 5232.46,1077.86 5237.84,1018.3 5243.21,917.025 5248.58,962.992 5253.95,939.806 
  5259.33,1028.91 5264.7,989.393 5270.07,1097.86 5275.44,1075.02 5280.82,1206.91 5286.19,1235.61 5291.56,1381.96 5296.93,1169.04 5302.31,1066.58 5307.68,933.253 
  5313.05,882.168 5318.42,965.29 5323.8,1030.99 5329.17,1160 5334.54,1013.24 5339.91,1086.55 5345.29,1038.58 5350.66,937.514 5356.03,910.106 5361.41,914.372 
  5366.78,880.457 5372.15,841.14 5377.52,808.162 5382.9,775.211 5388.27,821.485 5393.64,779.146 5399.01,788.127 5404.39,741.517 5409.76,751.754 5415.13,729.761 
  5420.5,762.674 5425.88,742.798 5431.25,778.365 5436.62,774.134 5441.99,765.39 5447.37,735.44 5452.74,803.316 5458.11,778.481 5463.48,733.52 5468.86,761.037 
  5474.23,732.016 5479.6,793.647 5484.97,746.82 5490.35,807.053 5495.72,805.268 5501.09,754.568 5506.47,773.849 5511.84,763.945 5517.21,767.538 5522.58,799.474 
  5527.96,800.072 5533.33,780.354 5538.7,805.506 5544.07,815.301 5549.45,839.81 5554.82,849.321 5560.19,810.034 5565.56,859.727 5570.94,882.593 5576.31,889.511 
  
  "/>
<path clip-path="url(#clip4800)" d="
M1380.02 312.204 L2280.76 312.204 L2280.76 130.764 L1380.02 130.764  Z
  " fill="#ffffff" fill-rule="evenodd" fill-opacity="1"/>
<polyline clip-path="url(#clip4800)" style="stroke:#000000; stroke-width:4; stroke-opacity:1; fill:none" points="
  1380.02,312.204 2280.76,312.204 2280.76,130.764 1380.02,130.764 1380.02,312.204 
  "/>
<polyline clip-path="url(#clip4800)" style="stroke:#009af9; stroke-width:4; stroke-opacity:1; fill:none" points="
  1404.02,191.244 1548.02,191.244 
  "/>
<g clip-path="url(#clip4800)">
<text style="fill:#000000; fill-opacity:1; font-family:Arial,Helvetica Neue,Helvetica,sans-serif; font-size:48px; text-anchor:start;" transform="rotate(0, 1572.02, 208.744)" x="1572.02" y="208.744">Log Error Observed vs Kalman</text>
</g>
<polyline clip-path="url(#clip4800)" style="stroke:#e26f46; stroke-width:4; stroke-opacity:1; fill:none" points="
  1404.02,251.724 1548.02,251.724 
  "/>
<g clip-path="url(#clip4800)">
<text style="fill:#000000; fill-opacity:1; font-family:Arial,Helvetica Neue,Helvetica,sans-serif; font-size:48px; text-anchor:start;" transform="rotate(0, 1572.02, 269.224)" x="1572.02" y="269.224">Log Error True vs Kalman</text>
</g>
</svg>
