<?xml version="1.0" encoding="utf-8"?>
<svg xmlns="http://www.w3.org/2000/svg" xmlns:xlink="http://www.w3.org/1999/xlink" width="600" height="400" viewBox="0 0 2400 1600">
<defs>
  <clipPath id="clip4400">
    <rect x="0" y="0" width="2400" height="1600"/>
  </clipPath>
</defs>
<path clip-path="url(#clip4400)" d="
M0 1600 L2400 1600 L2400 0 L0 0  Z
  " fill="#ffffff" fill-rule="evenodd" fill-opacity="1"/>
<defs>
  <clipPath id="clip4401">
    <rect x="480" y="0" width="1681" height="1600"/>
  </clipPath>
</defs>
<path clip-path="url(#clip4400)" d="
M282.66 1425.62 L2352.76 1425.62 L2352.76 47.2441 L282.66 47.2441  Z
  " fill="#ffffff" fill-rule="evenodd" fill-opacity="1"/>
<defs>
  <clipPath id="clip4402">
    <rect x="282" y="47" width="2071" height="1379"/>
  </clipPath>
</defs>
<polyline clip-path="url(#clip4402)" style="stroke:#000000; stroke-width:2; stroke-opacity:0.1; fill:none" points="
  282.66,1425.62 282.66,47.2441 
  "/>
<polyline clip-path="url(#clip4402)" style="stroke:#000000; stroke-width:2; stroke-opacity:0.1; fill:none" points="
  578.388,1425.62 578.388,47.2441 
  "/>
<polyline clip-path="url(#clip4402)" style="stroke:#000000; stroke-width:2; stroke-opacity:0.1; fill:none" points="
  874.116,1425.62 874.116,47.2441 
  "/>
<polyline clip-path="url(#clip4402)" style="stroke:#000000; stroke-width:2; stroke-opacity:0.1; fill:none" points="
  1169.84,1425.62 1169.84,47.2441 
  "/>
<polyline clip-path="url(#clip4402)" style="stroke:#000000; stroke-width:2; stroke-opacity:0.1; fill:none" points="
  1465.57,1425.62 1465.57,47.2441 
  "/>
<polyline clip-path="url(#clip4402)" style="stroke:#000000; stroke-width:2; stroke-opacity:0.1; fill:none" points="
  1761.3,1425.62 1761.3,47.2441 
  "/>
<polyline clip-path="url(#clip4402)" style="stroke:#000000; stroke-width:2; stroke-opacity:0.1; fill:none" points="
  2057.03,1425.62 2057.03,47.2441 
  "/>
<polyline clip-path="url(#clip4402)" style="stroke:#000000; stroke-width:2; stroke-opacity:0.1; fill:none" points="
  2352.76,1425.62 2352.76,47.2441 
  "/>
<polyline clip-path="url(#clip4402)" style="stroke:#000000; stroke-width:2; stroke-opacity:0.1; fill:none" points="
  282.66,1425.62 2352.76,1425.62 
  "/>
<polyline clip-path="url(#clip4402)" style="stroke:#000000; stroke-width:2; stroke-opacity:0.1; fill:none" points="
  282.66,1228.71 2352.76,1228.71 
  "/>
<polyline clip-path="url(#clip4402)" style="stroke:#000000; stroke-width:2; stroke-opacity:0.1; fill:none" points="
  282.66,1031.8 2352.76,1031.8 
  "/>
<polyline clip-path="url(#clip4402)" style="stroke:#000000; stroke-width:2; stroke-opacity:0.1; fill:none" points="
  282.66,834.887 2352.76,834.887 
  "/>
<polyline clip-path="url(#clip4402)" style="stroke:#000000; stroke-width:2; stroke-opacity:0.1; fill:none" points="
  282.66,637.976 2352.76,637.976 
  "/>
<polyline clip-path="url(#clip4402)" style="stroke:#000000; stroke-width:2; stroke-opacity:0.1; fill:none" points="
  282.66,441.065 2352.76,441.065 
  "/>
<polyline clip-path="url(#clip4402)" style="stroke:#000000; stroke-width:2; stroke-opacity:0.1; fill:none" points="
  282.66,244.155 2352.76,244.155 
  "/>
<polyline clip-path="url(#clip4402)" style="stroke:#000000; stroke-width:2; stroke-opacity:0.1; fill:none" points="
  282.66,47.2441 2352.76,47.2441 
  "/>
<polyline clip-path="url(#clip4400)" style="stroke:#000000; stroke-width:4; stroke-opacity:1; fill:none" points="
  282.66,1425.62 2352.76,1425.62 
  "/>
<polyline clip-path="url(#clip4400)" style="stroke:#000000; stroke-width:4; stroke-opacity:1; fill:none" points="
  282.66,1425.62 282.66,47.2441 
  "/>
<polyline clip-path="url(#clip4400)" style="stroke:#000000; stroke-width:4; stroke-opacity:1; fill:none" points="
  282.66,1425.62 282.66,1409.08 
  "/>
<polyline clip-path="url(#clip4400)" style="stroke:#000000; stroke-width:4; stroke-opacity:1; fill:none" points="
  578.388,1425.62 578.388,1409.08 
  "/>
<polyline clip-path="url(#clip4400)" style="stroke:#000000; stroke-width:4; stroke-opacity:1; fill:none" points="
  874.116,1425.62 874.116,1409.08 
  "/>
<polyline clip-path="url(#clip4400)" style="stroke:#000000; stroke-width:4; stroke-opacity:1; fill:none" points="
  1169.84,1425.62 1169.84,1409.08 
  "/>
<polyline clip-path="url(#clip4400)" style="stroke:#000000; stroke-width:4; stroke-opacity:1; fill:none" points="
  1465.57,1425.62 1465.57,1409.08 
  "/>
<polyline clip-path="url(#clip4400)" style="stroke:#000000; stroke-width:4; stroke-opacity:1; fill:none" points="
  1761.3,1425.62 1761.3,1409.08 
  "/>
<polyline clip-path="url(#clip4400)" style="stroke:#000000; stroke-width:4; stroke-opacity:1; fill:none" points="
  2057.03,1425.62 2057.03,1409.08 
  "/>
<polyline clip-path="url(#clip4400)" style="stroke:#000000; stroke-width:4; stroke-opacity:1; fill:none" points="
  2352.76,1425.62 2352.76,1409.08 
  "/>
<polyline clip-path="url(#clip4400)" style="stroke:#000000; stroke-width:4; stroke-opacity:1; fill:none" points="
  282.66,1425.62 307.501,1425.62 
  "/>
<polyline clip-path="url(#clip4400)" style="stroke:#000000; stroke-width:4; stroke-opacity:1; fill:none" points="
  282.66,1228.71 307.501,1228.71 
  "/>
<polyline clip-path="url(#clip4400)" style="stroke:#000000; stroke-width:4; stroke-opacity:1; fill:none" points="
  282.66,1031.8 307.501,1031.8 
  "/>
<polyline clip-path="url(#clip4400)" style="stroke:#000000; stroke-width:4; stroke-opacity:1; fill:none" points="
  282.66,834.887 307.501,834.887 
  "/>
<polyline clip-path="url(#clip4400)" style="stroke:#000000; stroke-width:4; stroke-opacity:1; fill:none" points="
  282.66,637.976 307.501,637.976 
  "/>
<polyline clip-path="url(#clip4400)" style="stroke:#000000; stroke-width:4; stroke-opacity:1; fill:none" points="
  282.66,441.065 307.501,441.065 
  "/>
<polyline clip-path="url(#clip4400)" style="stroke:#000000; stroke-width:4; stroke-opacity:1; fill:none" points="
  282.66,244.155 307.501,244.155 
  "/>
<polyline clip-path="url(#clip4400)" style="stroke:#000000; stroke-width:4; stroke-opacity:1; fill:none" points="
  282.66,47.2441 307.501,47.2441 
  "/>
<g clip-path="url(#clip4400)">
<text style="fill:#000000; fill-opacity:1; font-family:Arial,Helvetica Neue,Helvetica,sans-serif; font-size:48px; text-anchor:middle;" transform="rotate(0, 282.66, 1479.62)" x="282.66" y="1479.62">10000</text>
</g>
<g clip-path="url(#clip4400)">
<text style="fill:#000000; fill-opacity:1; font-family:Arial,Helvetica Neue,Helvetica,sans-serif; font-size:48px; text-anchor:middle;" transform="rotate(0, 578.388, 1479.62)" x="578.388" y="1479.62">10500</text>
</g>
<g clip-path="url(#clip4400)">
<text style="fill:#000000; fill-opacity:1; font-family:Arial,Helvetica Neue,Helvetica,sans-serif; font-size:48px; text-anchor:middle;" transform="rotate(0, 874.116, 1479.62)" x="874.116" y="1479.62">11000</text>
</g>
<g clip-path="url(#clip4400)">
<text style="fill:#000000; fill-opacity:1; font-family:Arial,Helvetica Neue,Helvetica,sans-serif; font-size:48px; text-anchor:middle;" transform="rotate(0, 1169.84, 1479.62)" x="1169.84" y="1479.62">11500</text>
</g>
<g clip-path="url(#clip4400)">
<text style="fill:#000000; fill-opacity:1; font-family:Arial,Helvetica Neue,Helvetica,sans-serif; font-size:48px; text-anchor:middle;" transform="rotate(0, 1465.57, 1479.62)" x="1465.57" y="1479.62">12000</text>
</g>
<g clip-path="url(#clip4400)">
<text style="fill:#000000; fill-opacity:1; font-family:Arial,Helvetica Neue,Helvetica,sans-serif; font-size:48px; text-anchor:middle;" transform="rotate(0, 1761.3, 1479.62)" x="1761.3" y="1479.62">12500</text>
</g>
<g clip-path="url(#clip4400)">
<text style="fill:#000000; fill-opacity:1; font-family:Arial,Helvetica Neue,Helvetica,sans-serif; font-size:48px; text-anchor:middle;" transform="rotate(0, 2057.03, 1479.62)" x="2057.03" y="1479.62">13000</text>
</g>
<g clip-path="url(#clip4400)">
<text style="fill:#000000; fill-opacity:1; font-family:Arial,Helvetica Neue,Helvetica,sans-serif; font-size:48px; text-anchor:middle;" transform="rotate(0, 2352.76, 1479.62)" x="2352.76" y="1479.62">13500</text>
</g>
<g clip-path="url(#clip4400)">
<text style="fill:#000000; fill-opacity:1; font-family:Arial,Helvetica Neue,Helvetica,sans-serif; font-size:48px; text-anchor:end;" transform="rotate(0, 258.66, 1443.12)" x="258.66" y="1443.12">14000</text>
</g>
<g clip-path="url(#clip4400)">
<text style="fill:#000000; fill-opacity:1; font-family:Arial,Helvetica Neue,Helvetica,sans-serif; font-size:48px; text-anchor:end;" transform="rotate(0, 258.66, 1246.21)" x="258.66" y="1246.21">14500</text>
</g>
<g clip-path="url(#clip4400)">
<text style="fill:#000000; fill-opacity:1; font-family:Arial,Helvetica Neue,Helvetica,sans-serif; font-size:48px; text-anchor:end;" transform="rotate(0, 258.66, 1049.3)" x="258.66" y="1049.3">15000</text>
</g>
<g clip-path="url(#clip4400)">
<text style="fill:#000000; fill-opacity:1; font-family:Arial,Helvetica Neue,Helvetica,sans-serif; font-size:48px; text-anchor:end;" transform="rotate(0, 258.66, 852.387)" x="258.66" y="852.387">15500</text>
</g>
<g clip-path="url(#clip4400)">
<text style="fill:#000000; fill-opacity:1; font-family:Arial,Helvetica Neue,Helvetica,sans-serif; font-size:48px; text-anchor:end;" transform="rotate(0, 258.66, 655.476)" x="258.66" y="655.476">16000</text>
</g>
<g clip-path="url(#clip4400)">
<text style="fill:#000000; fill-opacity:1; font-family:Arial,Helvetica Neue,Helvetica,sans-serif; font-size:48px; text-anchor:end;" transform="rotate(0, 258.66, 458.565)" x="258.66" y="458.565">16500</text>
</g>
<g clip-path="url(#clip4400)">
<text style="fill:#000000; fill-opacity:1; font-family:Arial,Helvetica Neue,Helvetica,sans-serif; font-size:48px; text-anchor:end;" transform="rotate(0, 258.66, 261.655)" x="258.66" y="261.655">17000</text>
</g>
<g clip-path="url(#clip4400)">
<text style="fill:#000000; fill-opacity:1; font-family:Arial,Helvetica Neue,Helvetica,sans-serif; font-size:48px; text-anchor:end;" transform="rotate(0, 258.66, 64.7441)" x="258.66" y="64.7441">17500</text>
</g>
<g clip-path="url(#clip4400)">
<text style="fill:#000000; fill-opacity:1; font-family:Arial,Helvetica Neue,Helvetica,sans-serif; font-size:66px; text-anchor:middle;" transform="rotate(0, 1317.71, 1559.48)" x="1317.71" y="1559.48">Horizontal Position</text>
</g>
<g clip-path="url(#clip4400)">
<text style="fill:#000000; fill-opacity:1; font-family:Arial,Helvetica Neue,Helvetica,sans-serif; font-size:66px; text-anchor:middle;" transform="rotate(-90, 89.2861, 736.431)" x="89.2861" y="736.431">Vertical Position</text>
</g>
<circle clip-path="url(#clip4402)" style="fill:#009af9; stroke:none; fill-opacity:1" cx="298.421" cy="1396.13" r="7"/>
<circle clip-path="url(#clip4402)" style="fill:#009af9; stroke:none; fill-opacity:1" cx="398.703" cy="1204.86" r="7"/>
<circle clip-path="url(#clip4402)" style="fill:#009af9; stroke:none; fill-opacity:1" cx="321.677" cy="1256.39" r="7"/>
<circle clip-path="url(#clip4402)" style="fill:#009af9; stroke:none; fill-opacity:1" cx="509.967" cy="1209.29" r="7"/>
<circle clip-path="url(#clip4402)" style="fill:#009af9; stroke:none; fill-opacity:1" cx="417.698" cy="1138.22" r="7"/>
<circle clip-path="url(#clip4402)" style="fill:#009af9; stroke:none; fill-opacity:1" cx="321.833" cy="1355.88" r="7"/>
<circle clip-path="url(#clip4402)" style="fill:#009af9; stroke:none; fill-opacity:1" cx="311.286" cy="1349.7" r="7"/>
<circle clip-path="url(#clip4402)" style="fill:#009af9; stroke:none; fill-opacity:1" cx="498.747" cy="1105.06" r="7"/>
<circle clip-path="url(#clip4402)" style="fill:#009af9; stroke:none; fill-opacity:1" cx="609.757" cy="1014.9" r="7"/>
<circle clip-path="url(#clip4402)" style="fill:#009af9; stroke:none; fill-opacity:1" cx="424.905" cy="1157.97" r="7"/>
<circle clip-path="url(#clip4402)" style="fill:#009af9; stroke:none; fill-opacity:1" cx="573.631" cy="1347.81" r="7"/>
<circle clip-path="url(#clip4402)" style="fill:#009af9; stroke:none; fill-opacity:1" cx="722.068" cy="1184.61" r="7"/>
<circle clip-path="url(#clip4402)" style="fill:#009af9; stroke:none; fill-opacity:1" cx="655.06" cy="1179.17" r="7"/>
<circle clip-path="url(#clip4402)" style="fill:#009af9; stroke:none; fill-opacity:1" cx="454.475" cy="1266.66" r="7"/>
<circle clip-path="url(#clip4402)" style="fill:#009af9; stroke:none; fill-opacity:1" cx="484.758" cy="1273.35" r="7"/>
<circle clip-path="url(#clip4402)" style="fill:#009af9; stroke:none; fill-opacity:1" cx="474.502" cy="941.574" r="7"/>
<circle clip-path="url(#clip4402)" style="fill:#009af9; stroke:none; fill-opacity:1" cx="568.142" cy="933.005" r="7"/>
<circle clip-path="url(#clip4402)" style="fill:#009af9; stroke:none; fill-opacity:1" cx="638.6" cy="1079.84" r="7"/>
<circle clip-path="url(#clip4402)" style="fill:#009af9; stroke:none; fill-opacity:1" cx="386.586" cy="959.223" r="7"/>
<circle clip-path="url(#clip4402)" style="fill:#009af9; stroke:none; fill-opacity:1" cx="752.394" cy="952.044" r="7"/>
<circle clip-path="url(#clip4402)" style="fill:#009af9; stroke:none; fill-opacity:1" cx="329.314" cy="972.528" r="7"/>
<circle clip-path="url(#clip4402)" style="fill:#009af9; stroke:none; fill-opacity:1" cx="660.675" cy="1048.92" r="7"/>
<circle clip-path="url(#clip4402)" style="fill:#009af9; stroke:none; fill-opacity:1" cx="856.668" cy="989.675" r="7"/>
<circle clip-path="url(#clip4402)" style="fill:#009af9; stroke:none; fill-opacity:1" cx="821.753" cy="907.738" r="7"/>
<circle clip-path="url(#clip4402)" style="fill:#009af9; stroke:none; fill-opacity:1" cx="433.528" cy="1190.25" r="7"/>
<circle clip-path="url(#clip4402)" style="fill:#009af9; stroke:none; fill-opacity:1" cx="510.255" cy="1029.51" r="7"/>
<circle clip-path="url(#clip4402)" style="fill:#009af9; stroke:none; fill-opacity:1" cx="855.992" cy="1190.71" r="7"/>
<circle clip-path="url(#clip4402)" style="fill:#009af9; stroke:none; fill-opacity:1" cx="807.75" cy="956.812" r="7"/>
<circle clip-path="url(#clip4402)" style="fill:#009af9; stroke:none; fill-opacity:1" cx="1017.37" cy="1147.73" r="7"/>
<circle clip-path="url(#clip4402)" style="fill:#009af9; stroke:none; fill-opacity:1" cx="739.802" cy="1099.96" r="7"/>
<circle clip-path="url(#clip4402)" style="fill:#009af9; stroke:none; fill-opacity:1" cx="1045.42" cy="1057.07" r="7"/>
<circle clip-path="url(#clip4402)" style="fill:#009af9; stroke:none; fill-opacity:1" cx="727.231" cy="903.45" r="7"/>
<circle clip-path="url(#clip4402)" style="fill:#009af9; stroke:none; fill-opacity:1" cx="581.217" cy="1102.3" r="7"/>
<circle clip-path="url(#clip4402)" style="fill:#009af9; stroke:none; fill-opacity:1" cx="618.891" cy="896.963" r="7"/>
<circle clip-path="url(#clip4402)" style="fill:#009af9; stroke:none; fill-opacity:1" cx="679.773" cy="844.825" r="7"/>
<circle clip-path="url(#clip4402)" style="fill:#009af9; stroke:none; fill-opacity:1" cx="899.614" cy="765.13" r="7"/>
<circle clip-path="url(#clip4402)" style="fill:#009af9; stroke:none; fill-opacity:1" cx="1067.85" cy="1021.93" r="7"/>
<circle clip-path="url(#clip4402)" style="fill:#009af9; stroke:none; fill-opacity:1" cx="947.904" cy="999.168" r="7"/>
<circle clip-path="url(#clip4402)" style="fill:#009af9; stroke:none; fill-opacity:1" cx="1156.04" cy="818.865" r="7"/>
<circle clip-path="url(#clip4402)" style="fill:#009af9; stroke:none; fill-opacity:1" cx="1069.45" cy="841.809" r="7"/>
<circle clip-path="url(#clip4402)" style="fill:#009af9; stroke:none; fill-opacity:1" cx="857.931" cy="707.127" r="7"/>
<circle clip-path="url(#clip4402)" style="fill:#009af9; stroke:none; fill-opacity:1" cx="791.233" cy="732.975" r="7"/>
<circle clip-path="url(#clip4402)" style="fill:#009af9; stroke:none; fill-opacity:1" cx="736.343" cy="958.075" r="7"/>
<circle clip-path="url(#clip4402)" style="fill:#009af9; stroke:none; fill-opacity:1" cx="805.51" cy="915.669" r="7"/>
<circle clip-path="url(#clip4402)" style="fill:#009af9; stroke:none; fill-opacity:1" cx="896.85" cy="779.278" r="7"/>
<circle clip-path="url(#clip4402)" style="fill:#009af9; stroke:none; fill-opacity:1" cx="863.368" cy="911.973" r="7"/>
<circle clip-path="url(#clip4402)" style="fill:#009af9; stroke:none; fill-opacity:1" cx="965.509" cy="792.469" r="7"/>
<circle clip-path="url(#clip4402)" style="fill:#009af9; stroke:none; fill-opacity:1" cx="990.995" cy="655.578" r="7"/>
<circle clip-path="url(#clip4402)" style="fill:#009af9; stroke:none; fill-opacity:1" cx="1347.95" cy="709.453" r="7"/>
<circle clip-path="url(#clip4402)" style="fill:#009af9; stroke:none; fill-opacity:1" cx="1215.11" cy="763.995" r="7"/>
<circle clip-path="url(#clip4402)" style="fill:#009af9; stroke:none; fill-opacity:1" cx="1070.02" cy="903.414" r="7"/>
<circle clip-path="url(#clip4402)" style="fill:#009af9; stroke:none; fill-opacity:1" cx="1215.55" cy="733.175" r="7"/>
<circle clip-path="url(#clip4402)" style="fill:#009af9; stroke:none; fill-opacity:1" cx="1027.73" cy="749.936" r="7"/>
<circle clip-path="url(#clip4402)" style="fill:#009af9; stroke:none; fill-opacity:1" cx="915.505" cy="700.5" r="7"/>
<circle clip-path="url(#clip4402)" style="fill:#009af9; stroke:none; fill-opacity:1" cx="1011.85" cy="812.229" r="7"/>
<circle clip-path="url(#clip4402)" style="fill:#009af9; stroke:none; fill-opacity:1" cx="1446.34" cy="676.999" r="7"/>
<circle clip-path="url(#clip4402)" style="fill:#009af9; stroke:none; fill-opacity:1" cx="1122.47" cy="685.23" r="7"/>
<circle clip-path="url(#clip4402)" style="fill:#009af9; stroke:none; fill-opacity:1" cx="1415.68" cy="666.331" r="7"/>
<circle clip-path="url(#clip4402)" style="fill:#009af9; stroke:none; fill-opacity:1" cx="1449.65" cy="600.238" r="7"/>
<circle clip-path="url(#clip4402)" style="fill:#009af9; stroke:none; fill-opacity:1" cx="998.102" cy="724.724" r="7"/>
<circle clip-path="url(#clip4402)" style="fill:#009af9; stroke:none; fill-opacity:1" cx="1532.4" cy="752.499" r="7"/>
<circle clip-path="url(#clip4402)" style="fill:#009af9; stroke:none; fill-opacity:1" cx="1303.05" cy="790.333" r="7"/>
<circle clip-path="url(#clip4402)" style="fill:#009af9; stroke:none; fill-opacity:1" cx="1544.54" cy="532.711" r="7"/>
<circle clip-path="url(#clip4402)" style="fill:#009af9; stroke:none; fill-opacity:1" cx="1045.32" cy="774.558" r="7"/>
<circle clip-path="url(#clip4402)" style="fill:#009af9; stroke:none; fill-opacity:1" cx="1500.76" cy="717.525" r="7"/>
<circle clip-path="url(#clip4402)" style="fill:#009af9; stroke:none; fill-opacity:1" cx="1167.8" cy="501.354" r="7"/>
<circle clip-path="url(#clip4402)" style="fill:#009af9; stroke:none; fill-opacity:1" cx="1146.85" cy="612.849" r="7"/>
<circle clip-path="url(#clip4402)" style="fill:#009af9; stroke:none; fill-opacity:1" cx="1227.76" cy="700.22" r="7"/>
<circle clip-path="url(#clip4402)" style="fill:#009af9; stroke:none; fill-opacity:1" cx="1626.46" cy="775.355" r="7"/>
<circle clip-path="url(#clip4402)" style="fill:#009af9; stroke:none; fill-opacity:1" cx="1618.75" cy="535.405" r="7"/>
<circle clip-path="url(#clip4402)" style="fill:#009af9; stroke:none; fill-opacity:1" cx="1726.11" cy="695.432" r="7"/>
<circle clip-path="url(#clip4402)" style="fill:#009af9; stroke:none; fill-opacity:1" cx="1333.96" cy="655.546" r="7"/>
<circle clip-path="url(#clip4402)" style="fill:#009af9; stroke:none; fill-opacity:1" cx="1721.45" cy="793.61" r="7"/>
<circle clip-path="url(#clip4402)" style="fill:#009af9; stroke:none; fill-opacity:1" cx="1421.36" cy="515.227" r="7"/>
<circle clip-path="url(#clip4402)" style="fill:#009af9; stroke:none; fill-opacity:1" cx="1228.8" cy="516.686" r="7"/>
<circle clip-path="url(#clip4402)" style="fill:#009af9; stroke:none; fill-opacity:1" cx="1594.91" cy="815.98" r="7"/>
<circle clip-path="url(#clip4402)" style="fill:#009af9; stroke:none; fill-opacity:1" cx="1252.89" cy="710.081" r="7"/>
<circle clip-path="url(#clip4402)" style="fill:#009af9; stroke:none; fill-opacity:1" cx="1297.29" cy="520.22" r="7"/>
<circle clip-path="url(#clip4402)" style="fill:#009af9; stroke:none; fill-opacity:1" cx="1583.64" cy="729.018" r="7"/>
<circle clip-path="url(#clip4402)" style="fill:#009af9; stroke:none; fill-opacity:1" cx="1446.76" cy="408.199" r="7"/>
<circle clip-path="url(#clip4402)" style="fill:#009af9; stroke:none; fill-opacity:1" cx="1721.84" cy="539.625" r="7"/>
<circle clip-path="url(#clip4402)" style="fill:#009af9; stroke:none; fill-opacity:1" cx="1705.71" cy="542.88" r="7"/>
<circle clip-path="url(#clip4402)" style="fill:#009af9; stroke:none; fill-opacity:1" cx="1882.06" cy="404.348" r="7"/>
<circle clip-path="url(#clip4402)" style="fill:#009af9; stroke:none; fill-opacity:1" cx="1666.17" cy="677.631" r="7"/>
<circle clip-path="url(#clip4402)" style="fill:#009af9; stroke:none; fill-opacity:1" cx="1438.34" cy="437.197" r="7"/>
<circle clip-path="url(#clip4402)" style="fill:#009af9; stroke:none; fill-opacity:1" cx="1957.3" cy="568.378" r="7"/>
<circle clip-path="url(#clip4402)" style="fill:#009af9; stroke:none; fill-opacity:1" cx="1670.93" cy="505.976" r="7"/>
<circle clip-path="url(#clip4402)" style="fill:#009af9; stroke:none; fill-opacity:1" cx="1795.89" cy="403.675" r="7"/>
<circle clip-path="url(#clip4402)" style="fill:#009af9; stroke:none; fill-opacity:1" cx="2027.81" cy="724.288" r="7"/>
<circle clip-path="url(#clip4402)" style="fill:#009af9; stroke:none; fill-opacity:1" cx="1916.08" cy="680.58" r="7"/>
<circle clip-path="url(#clip4402)" style="fill:#009af9; stroke:none; fill-opacity:1" cx="1841.58" cy="392.665" r="7"/>
<circle clip-path="url(#clip4402)" style="fill:#009af9; stroke:none; fill-opacity:1" cx="1759.61" cy="595.756" r="7"/>
<circle clip-path="url(#clip4402)" style="fill:#009af9; stroke:none; fill-opacity:1" cx="1859.85" cy="427.16" r="7"/>
<circle clip-path="url(#clip4402)" style="fill:#009af9; stroke:none; fill-opacity:1" cx="1818.34" cy="516.125" r="7"/>
<circle clip-path="url(#clip4402)" style="fill:#009af9; stroke:none; fill-opacity:1" cx="1573.92" cy="346.854" r="7"/>
<circle clip-path="url(#clip4402)" style="fill:#009af9; stroke:none; fill-opacity:1" cx="1678.29" cy="573.724" r="7"/>
<circle clip-path="url(#clip4402)" style="fill:#009af9; stroke:none; fill-opacity:1" cx="2038.61" cy="482.836" r="7"/>
<circle clip-path="url(#clip4402)" style="fill:#009af9; stroke:none; fill-opacity:1" cx="1847.32" cy="497.518" r="7"/>
<circle clip-path="url(#clip4402)" style="fill:#009af9; stroke:none; fill-opacity:1" cx="1825.79" cy="339.953" r="7"/>
<circle clip-path="url(#clip4402)" style="fill:#009af9; stroke:none; fill-opacity:1" cx="2154.37" cy="486.079" r="7"/>
<circle clip-path="url(#clip4402)" style="fill:#009af9; stroke:none; fill-opacity:1" cx="1697.69" cy="594.747" r="7"/>
<circle clip-path="url(#clip4402)" style="fill:#009af9; stroke:none; fill-opacity:1" cx="2055.63" cy="430.776" r="7"/>
<circle clip-path="url(#clip4402)" style="fill:#009af9; stroke:none; fill-opacity:1" cx="1744.96" cy="300.45" r="7"/>
<circle clip-path="url(#clip4402)" style="fill:#009af9; stroke:none; fill-opacity:1" cx="2022.18" cy="590.866" r="7"/>
<circle clip-path="url(#clip4402)" style="fill:#009af9; stroke:none; fill-opacity:1" cx="1880.58" cy="565.111" r="7"/>
<circle clip-path="url(#clip4402)" style="fill:#009af9; stroke:none; fill-opacity:1" cx="2161.26" cy="239.357" r="7"/>
<circle clip-path="url(#clip4402)" style="fill:#009af9; stroke:none; fill-opacity:1" cx="2260.72" cy="355.239" r="7"/>
<circle clip-path="url(#clip4402)" style="fill:#009af9; stroke:none; fill-opacity:1" cx="1796.97" cy="361.249" r="7"/>
<circle clip-path="url(#clip4402)" style="fill:#009af9; stroke:none; fill-opacity:1" cx="2240.11" cy="549.515" r="7"/>
<circle clip-path="url(#clip4402)" style="fill:#009af9; stroke:none; fill-opacity:1" cx="2175.39" cy="261.527" r="7"/>
<circle clip-path="url(#clip4402)" style="fill:#009af9; stroke:none; fill-opacity:1" cx="2299.6" cy="545.479" r="7"/>
<circle clip-path="url(#clip4402)" style="fill:#009af9; stroke:none; fill-opacity:1" cx="1896.21" cy="454.071" r="7"/>
<circle clip-path="url(#clip4402)" style="fill:#009af9; stroke:none; fill-opacity:1" cx="1929.49" cy="372.043" r="7"/>
<circle clip-path="url(#clip4402)" style="fill:#009af9; stroke:none; fill-opacity:1" cx="2239.97" cy="381.486" r="7"/>
<circle clip-path="url(#clip4402)" style="fill:#009af9; stroke:none; fill-opacity:1" cx="1919.69" cy="500.634" r="7"/>
<circle clip-path="url(#clip4402)" style="fill:#009af9; stroke:none; fill-opacity:1" cx="1929.31" cy="215.257" r="7"/>
<circle clip-path="url(#clip4402)" style="fill:#009af9; stroke:none; fill-opacity:1" cx="2026.05" cy="343.604" r="7"/>
<circle clip-path="url(#clip4402)" style="fill:#009af9; stroke:none; fill-opacity:1" cx="2089.8" cy="445.203" r="7"/>
<circle clip-path="url(#clip4402)" style="fill:#009af9; stroke:none; fill-opacity:1" cx="2115.73" cy="302.331" r="7"/>
<circle clip-path="url(#clip4402)" style="fill:#009af9; stroke:none; fill-opacity:1" cx="2071.11" cy="175.613" r="7"/>
<circle clip-path="url(#clip4402)" style="fill:#009af9; stroke:none; fill-opacity:1" cx="2259.84" cy="266.54" r="7"/>
<circle clip-path="url(#clip4402)" style="fill:#009af9; stroke:none; fill-opacity:1" cx="2332.04" cy="513.381" r="7"/>
<circle clip-path="url(#clip4402)" style="fill:#009af9; stroke:none; fill-opacity:1" cx="2271.04" cy="134.474" r="7"/>
<circle clip-path="url(#clip4402)" style="fill:#009af9; stroke:none; fill-opacity:1" cx="2310.41" cy="293.415" r="7"/>
<polyline clip-path="url(#clip4402)" style="stroke:#e26f46; stroke-width:16; stroke-opacity:1; fill:none" points="
  -5631.9,6939.12 -5614.16,6915.49 -5596.41,6891.9 -5578.67,6868.35 -5560.94,6844.85 -5543.2,6821.38 -5525.46,6797.96 -5507.73,6774.57 -5490,6751.23 -5472.27,6727.93 
  -5454.54,6704.67 -5436.82,6681.45 -5419.09,6658.27 -5401.37,6635.13 -5383.65,6612.03 -5365.93,6588.98 -5348.21,6565.96 -5330.5,6542.99 -5312.79,6520.05 -5295.07,6497.16 
  -5277.36,6474.31 -5259.66,6451.5 -5241.95,6428.73 -5224.24,6406 -5206.54,6383.31 -5188.84,6360.66 -5171.14,6338.06 -5153.44,6315.49 -5135.75,6292.97 -5118.05,6270.48 
  -5100.36,6248.04 -5082.67,6225.64 -5064.98,6203.27 -5047.29,6180.95 -5029.61,6158.67 -5011.93,6136.43 -4994.24,6114.24 -4976.56,6092.08 -4958.89,6069.96 -4941.21,6047.89 
  -4923.54,6025.85 -4905.86,6003.86 -4888.19,5981.9 -4870.52,5959.99 -4852.85,5938.12 -4835.19,5916.29 -4817.52,5894.5 -4799.86,5872.75 -4782.2,5851.04 -4764.54,5829.37 
  -4746.89,5807.75 -4729.23,5786.16 -4711.58,5764.61 -4693.93,5743.11 -4676.28,5721.64 -4658.63,5700.22 -4640.98,5678.84 -4623.34,5657.5 -4605.69,5636.2 -4588.05,5614.93 
  -4570.41,5593.71 -4552.78,5572.54 -4535.14,5551.4 -4517.51,5530.3 -4499.87,5509.24 -4482.24,5488.23 -4464.62,5467.25 -4446.99,5446.32 -4429.36,5425.42 -4411.74,5404.57 
  -4394.12,5383.76 -4376.5,5362.98 -4358.88,5342.25 -4341.26,5321.56 -4323.65,5300.91 -4306.04,5280.3 -4288.42,5259.73 -4270.82,5239.2 -4253.21,5218.72 -4235.6,5198.27 
  -4218,5177.86 -4200.4,5157.5 -4182.8,5137.17 -4165.2,5116.89 -4147.6,5096.65 -4130,5076.44 -4112.41,5056.28 -4094.82,5036.16 -4077.23,5016.08 -4059.64,4996.04 
  -4042.05,4976.04 -4024.47,4956.08 -4006.89,4936.16 -3989.31,4916.28 -3971.73,4896.44 -3954.15,4876.64 -3936.57,4856.89 -3919,4837.17 -3901.43,4817.5 -3883.86,4797.86 
  -3866.29,4778.27 -3848.72,4758.71 -3831.15,4739.2 -3813.59,4719.73 -3796.03,4700.3 -3778.47,4680.9 -3760.91,4661.55 -3743.35,4642.24 -3725.8,4622.97 -3708.25,4603.74 
  -3690.69,4584.55 -3673.14,4565.41 -3655.6,4546.3 -3638.05,4527.23 -3620.51,4508.2 -3602.96,4489.22 -3585.42,4470.27 -3567.88,4451.37 -3550.35,4432.5 -3532.81,4413.68 
  -3515.28,4394.89 -3497.75,4376.15 -3480.22,4357.45 -3462.69,4338.78 -3445.16,4320.16 -3427.64,4301.58 -3410.11,4283.04 -3392.59,4264.54 -3375.07,4246.08 -3357.55,4227.66 
  -3340.04,4209.28 -3322.52,4190.94 -3305.01,4172.64 -3287.5,4154.38 -3269.99,4136.16 -3252.48,4117.99 -3234.98,4099.85 -3217.47,4081.75 -3199.97,4063.7 -3182.47,4045.68 
  -3164.97,4027.71 -3147.47,4009.77 -3129.98,3991.88 -3112.48,3974.02 -3094.99,3956.21 -3077.5,3938.44 -3060.01,3920.7 -3042.53,3903.01 -3025.04,3885.36 -3007.56,3867.75 
  -2990.08,3850.17 -2972.6,3832.64 -2955.12,3815.15 -2937.65,3797.7 -2920.17,3780.29 -2902.7,3762.92 -2885.23,3745.59 -2867.76,3728.3 -2850.29,3711.05 -2832.83,3693.85 
  -2815.36,3676.68 -2797.9,3659.55 -2780.44,3642.46 -2762.98,3625.41 -2745.53,3608.41 -2728.07,3591.44 -2710.62,3574.51 -2693.17,3557.63 -2675.72,3540.78 -2658.27,3523.98 
  -2640.82,3507.21 -2623.38,3490.49 -2605.93,3473.8 -2588.49,3457.16 -2571.05,3440.55 -2553.62,3423.99 -2536.18,3407.47 -2518.75,3390.98 -2501.31,3374.54 -2483.88,3358.14 
  -2466.45,3341.77 -2449.03,3325.45 -2431.6,3309.17 -2414.18,3292.93 -2396.76,3276.72 -2379.34,3260.56 -2361.92,3244.44 -2344.5,3228.36 -2327.09,3212.32 -2309.67,3196.32 
  -2292.26,3180.36 -2274.85,3164.44 -2257.44,3148.56 -2240.04,3132.72 -2222.63,3116.92 -2205.23,3101.16 -2187.83,3085.44 -2170.43,3069.76 -2153.03,3054.12 -2135.64,3038.52 
  -2118.24,3022.96 -2100.85,3007.44 -2083.46,2991.96 -2066.07,2976.52 -2048.68,2961.13 -2031.3,2945.77 -2013.91,2930.45 -1996.53,2915.17 -1979.15,2899.93 -1961.77,2884.74 
  -1944.4,2869.58 -1927.02,2854.46 -1909.65,2839.38 -1892.28,2824.35 -1874.91,2809.35 -1857.54,2794.39 -1840.17,2779.48 -1822.81,2764.6 -1805.45,2749.76 -1788.09,2734.97 
  -1770.73,2720.21 -1753.37,2705.49 -1736.01,2690.82 -1718.66,2676.18 -1701.31,2661.58 -1683.96,2647.03 -1666.61,2632.51 -1649.26,2618.03 -1631.91,2603.6 -1614.57,2589.2 
  -1597.23,2574.85 -1579.89,2560.53 -1562.55,2546.25 -1545.21,2532.02 -1527.88,2517.82 -1510.54,2503.66 -1493.21,2489.55 -1475.88,2475.47 -1458.56,2461.44 -1441.23,2447.44 
  -1423.9,2433.48 -1406.58,2419.57 -1389.26,2405.69 -1371.94,2391.86 -1354.62,2378.06 -1337.31,2364.3 -1319.99,2350.59 -1302.68,2336.91 -1285.37,2323.28 -1268.06,2309.68 
  -1250.75,2296.12 -1233.45,2282.61 -1216.14,2269.13 -1198.84,2255.69 -1181.54,2242.3 -1164.24,2228.94 -1146.95,2215.62 -1129.65,2202.35 -1112.36,2189.11 -1095.07,2175.91 
  -1077.78,2162.76 -1060.49,2149.64 -1043.2,2136.56 -1025.92,2123.53 -1008.63,2110.53 -991.352,2097.57 -974.072,2084.65 -956.794,2071.78 -939.518,2058.94 -922.244,2046.14 
  -904.971,2033.38 -887.7,2020.66 -870.431,2007.98 -853.163,1995.35 -835.897,1982.75 -818.633,1970.19 -801.371,1957.67 -784.11,1945.19 -766.851,1932.75 -749.594,1920.35 
  -732.339,1907.99 -715.085,1895.67 -697.833,1883.39 -680.583,1871.15 -663.334,1858.95 -646.087,1846.79 -628.842,1834.67 -611.599,1822.59 -594.357,1810.55 -577.117,1798.55 
  -559.879,1786.59 -542.643,1774.67 -525.408,1762.78 -508.175,1750.94 -490.943,1739.14 -473.714,1727.38 -456.486,1715.65 -439.26,1703.97 -422.035,1692.33 -404.813,1680.72 
  -387.592,1669.16 -370.373,1657.64 -353.155,1646.15 -335.939,1634.71 -318.725,1623.3 -301.513,1611.94 -284.302,1600.61 -267.093,1589.33 -249.886,1578.08 -232.681,1566.88 
  -215.477,1555.71 -198.275,1544.58 -181.074,1533.5 -163.876,1522.45 -146.679,1511.44 -129.484,1500.47 -112.29,1489.55 -95.0986,1478.66 -77.9086,1467.81 -60.7203,1457 
  -43.5338,1446.23 -26.3489,1435.5 -9.16582,1424.81 8.01559,1414.16 25.1953,1403.55 42.3732,1392.98 59.5495,1382.45 76.724,1371.95 93.8968,1361.5 111.068,1351.09 
  128.237,1340.72 145.405,1330.38 162.571,1320.09 179.735,1309.84 196.898,1299.62 214.058,1289.45 231.218,1279.31 248.375,1269.22 265.531,1259.16 282.685,1249.14 
  299.837,1239.17 316.987,1229.23 334.136,1219.33 351.283,1209.47 368.428,1199.66 385.572,1189.88 402.714,1180.14 419.854,1170.44 436.993,1160.78 454.13,1151.16 
  471.265,1141.58 488.398,1132.04 505.53,1122.53 522.66,1113.07 539.788,1103.65 556.914,1094.26 574.039,1084.92 591.162,1075.62 608.284,1066.35 625.403,1057.13 
  642.521,1047.94 659.637,1038.8 676.752,1029.69 693.865,1020.62 710.976,1011.59 728.085,1002.61 745.193,993.657 762.299,984.748 779.403,975.878 796.506,967.048 
  813.607,958.257 830.706,949.506 847.803,940.794 864.899,932.122 881.993,923.489 899.085,914.896 916.176,906.342 933.265,897.827 950.352,889.352 967.437,880.917 
  984.521,872.521 1001.6,864.164 1018.68,855.847 1035.76,847.569 1052.84,839.33 1069.91,831.131 1086.99,822.972 1104.06,814.851 1121.13,806.771 1138.2,798.729 
  1155.26,790.727 1172.33,782.765 1189.39,774.842 1206.45,766.958 1223.51,759.113 1240.57,751.308 1257.63,743.543 1274.68,735.816 1291.74,728.129 1308.79,720.482 
  1325.84,712.874 1342.89,705.305 1359.93,697.775 1376.98,690.285 1394.02,682.834 1411.06,675.423 1428.1,668.051 1445.14,660.718 1462.17,653.424 1479.21,646.17 
  1496.24,638.955 1513.27,631.78 1530.3,624.644 1547.33,617.547 1564.35,610.489 1581.38,603.471 1598.4,596.492 1615.42,589.552 1632.44,582.652 1649.46,575.79 
  1666.47,568.969 1683.49,562.186 1700.5,555.443 1717.51,548.739 1734.52,542.074 1751.52,535.448 1768.53,528.862 1785.53,522.315 1802.53,515.807 1819.54,509.339 
  1836.53,502.91 1853.53,496.52 1870.53,490.169 1887.52,483.857 1904.51,477.585 1921.5,471.352 1938.49,465.158 1955.48,459.003 1972.46,452.888 1989.44,446.811 
  2006.43,440.774 2023.41,434.777 2040.38,428.818 2057.36,422.898 2074.33,417.018 2091.31,411.177 2108.28,405.375 2125.25,399.612 2142.22,393.889 2159.18,388.204 
  2176.15,382.559 2193.11,376.953 2210.07,371.386 2227.03,365.858 2243.99,360.37 2260.95,354.92 2277.9,349.51 2294.85,344.138 2311.8,338.806 2328.75,333.513 
  2345.7,328.259 2362.65,323.045 2379.59,317.869 2396.53,312.733 2413.47,307.635 2430.41,302.577 2447.35,297.558 2464.29,292.578 2481.22,287.637 2498.15,282.735 
  2515.08,277.872 2532.01,273.048 2548.94,268.264 2565.86,263.518 2582.79,258.811 2599.71,254.144 2616.63,249.516 2633.55,244.926 2650.47,240.376 2667.38,235.865 
  2684.3,231.393 2701.21,226.959 2718.12,222.565 2735.03,218.21 2751.93,213.894 2768.84,209.617 2785.74,205.379 2802.65,201.18 2819.55,197.02 2836.44,192.899 
  2853.34,188.817 2870.24,184.774 2887.13,180.77 2904.02,176.805 2920.91,172.879 2937.8,168.992 2954.69,165.144 2971.57,161.335 2988.46,157.565 3005.34,153.834 
  3022.22,150.142 3039.1,146.489 3055.97,142.875 3072.85,139.3 3089.72,135.763 3106.59,132.266 3123.46,128.808 3140.33,125.388 3157.2,122.008 3174.06,118.666 
  3190.92,115.364 3207.78,112.1 3224.64,108.875 3241.5,105.689 3258.36,102.542 3275.21,99.4342 3292.07,96.365 3308.92,93.3348 3325.77,90.3434 3342.62,87.391 
  3359.46,84.4774 3376.31,81.6027 3393.15,78.7669 3409.99,75.97 3426.83,73.2119 3443.67,70.4928 3460.5,67.8125 3477.34,65.171 3494.17,62.5684 3511,60.0047 
  3527.83,57.4798 3544.66,54.9938 3561.48,52.5466 3578.31,50.1382 3595.13,47.7687 3611.95,45.438 3628.77,43.1462 3645.59,40.8931 3662.41,38.6789 3679.22,36.5035 
  3696.03,34.3669 3712.84,32.2691 3729.65,30.2102 3746.46,28.19 3763.27,26.2086 3780.07,24.266 3796.87,22.3622 3813.67,20.4972 3830.47,18.671 3847.27,16.8835 
  3864.07,15.1348 3880.86,13.4249 3897.65,11.7538 3914.44,10.1214 3931.23,8.52778 3948.02,6.97291 3964.81,5.45678 3981.59,3.97941 3998.37,2.54077 4015.15,1.14088 
  4031.93,-0.220286 4048.71,-1.54272 4065.48,-2.82642 4082.26,-4.0714 4099.03,-5.27767 4115.8,-6.44521 4132.57,-7.57405 4149.34,-8.66418 4166.1,-9.7156 4182.87,-10.7283 
  4199.63,-11.7024 4216.39,-12.6377 4233.15,-13.5343 4249.91,-14.3923 4266.66,-15.2116 4283.41,-15.9922 4300.17,-16.7341 4316.92,-17.4374 4333.67,-18.102 4350.41,-18.728 
  4367.16,-19.3152 4383.9,-19.8639 4400.64,-20.3739 4417.38,-20.8452 4434.12,-21.2779 4450.86,-21.672 4467.6,-22.0274 4484.33,-22.3442 4501.06,-22.6223 4517.79,-22.8619 
  4534.52,-23.0628 4551.25,-23.2251 4567.97,-23.3488 4584.7,-23.4339 4601.42,-23.4804 4618.14,-23.4883 4634.86,-23.4576 4651.58,-23.3883 4668.29,-23.2804 4685,-23.134 
  4701.72,-22.9489 4718.43,-22.7253 4735.13,-22.4631 4751.84,-22.1623 4768.55,-21.823 4785.25,-21.4451 4801.95,-21.0287 4818.65,-20.5737 4835.35,-20.0801 4852.05,-19.5481 
  4868.74,-18.9774 4885.44,-18.3683 4902.13,-17.7206 4918.82,-17.0343 4935.51,-16.3096 4952.2,-15.5463 4968.88,-14.7445 4985.56,-13.9042 5002.25,-13.0253 5018.93,-12.108 
  5035.61,-11.1522 5052.28,-10.1579 5068.96,-9.12503 5085.63,-8.05371 5102.3,-6.94391 5118.97,-5.79562 5135.64,-4.60885 5152.31,-3.38361 5168.97,-2.11989 5185.64,-0.817709 
  5202.3,0.522939 5218.96,1.90205 5235.62,3.31961 5252.28,4.77563 5268.93,6.2701 5285.58,7.80301 5302.24,9.37436 5318.89,10.9842 5335.53,12.6324 5352.18,14.319 
  5368.83,16.0441 5385.47,17.8076 5402.11,19.6095 5418.75,21.4499 5435.39,23.3286 5452.03,25.2458 5468.66,27.2013 5485.3,29.1953 5501.93,31.2276 5518.56,33.2983 
  5535.19,35.4075 5551.82,37.555 5568.44,39.7409 5585.06,41.9651 5601.69,44.2278 5618.31,46.5288 5634.93,48.8682 5651.54,51.2459 5668.16,53.662 5684.77,56.1164 
  5701.38,58.6092 5717.99,61.1403 5734.6,63.7098 5751.21,66.3176 5767.81,68.9638 5784.42,71.6482 5801.02,74.371 5817.62,77.1322 5834.22,79.9316 5850.82,82.7694 
  5867.41,85.6454 5884.01,88.5598 5900.6,91.5125 5917.19,94.5035 5933.78,97.5328 5950.36,100.6 5966.95,103.706 5983.53,106.85 6000.12,110.033 6016.7,113.253 
  6033.27,116.512 6049.85,119.81 6066.43,123.145 6083,126.519 6099.57,129.931 6116.14,133.381 6132.71,136.87 6149.28,140.396 6165.85,143.961 6182.41,147.565 
  6198.97,151.206 6215.53,154.886 6232.09,158.604 6248.65,162.36 6265.2,166.154 6281.76,169.987 6298.31,173.858 6314.86,177.767 6331.41,181.714 6347.96,185.699 
  6364.5,189.723 6381.05,193.785 6397.59,197.885 6414.13,202.023 6430.67,206.199 6447.21,210.414 6463.74,214.667 6480.28,218.957 6496.81,223.286 6513.34,227.654 
  6529.87,232.059 6546.4,236.503 6562.92,240.984 6579.45,245.504 6595.97,250.062 6612.49,254.658 6629.01,259.292 6645.53,263.965 6662.04,268.675 6678.56,273.424 
  6695.07,278.21 6711.58,283.035 6728.09,287.898 6744.6,292.799 6761.1,297.739 6777.61,302.716 6794.11,307.731 6810.61,312.785 6827.11,317.876 6843.61,323.006 
  6860.11,328.173 6876.6,333.379 6893.09,338.623 6909.58,343.905 6926.07,349.225 6942.56,354.583 6959.05,359.979 6975.53,365.413 6992.02,370.886 7008.5,376.396 
  7024.98,381.944 7041.45,387.531 7057.93,393.155 7074.4,398.817 7090.88,404.518 7107.35,410.256 7123.82,416.033 7140.29,421.847 7156.75,427.7 7173.22,433.59 
  7189.68,439.519 7206.14,445.486 7222.6,451.49 7239.06,457.533 7255.52,463.613 7271.97,469.732 7288.43,475.888 7304.88,482.083 7321.33,488.315 7337.78,494.586 
  7354.22,500.894 7370.67,507.24 7387.11,513.625 7403.55,520.047 7419.99,526.507 7436.43,533.005 7452.87,539.541 7469.3,546.115 7485.74,552.727 7502.17,559.377 
  7518.6,566.065 7535.03,572.791 7551.46,579.555 7567.88,586.356 7584.3,593.196 7600.73,600.073 7617.15,606.989 7633.57,613.942 7649.98,620.933 7666.4,627.962 
  7682.81,635.029 7699.22,642.134 7715.63,649.277 7732.04,656.457 7748.45,663.676 7764.86,670.932 7781.26,678.226 7797.66,685.558 7814.06,692.928 7830.46,700.336 
  7846.86,707.782 7863.26,715.265 7879.65,722.787 7896.04,730.346 7912.43,737.943 7928.82,745.578 7945.21,753.25 7961.6,760.961 7977.98,768.709 7994.36,776.495 
  8010.74,784.319 8027.12,792.181 8043.5,800.081 8059.88,808.018 8076.25,815.993 8092.63,824.006 8109,832.057 8125.37,840.146 8141.73,848.272 8158.1,856.436 
  8174.46,864.638 8190.83,872.878 8207.19,881.155 8223.55,889.471 8239.91,897.824 8256.26,906.214 8272.62,914.643 8288.97,923.109 8305.32,931.613 8321.67,940.155 
  8338.02,948.734 8354.37,957.352 8370.71,966.007 8387.06,974.699 8403.4,983.43 8419.74,992.198 8436.08,1001 8452.41,1009.85 8468.75,1018.73 8485.08,1027.65 
  8501.42,1036.6 8517.75,1045.6 8534.07,1054.63 8550.4,1063.7 8566.73,1072.81 8583.05,1081.95 8599.37,1091.14 8615.69,1100.36 8632.01,1109.61 8648.33,1118.91 
  8664.65,1128.24 8680.96,1137.62 8697.27,1147.02 8713.58,1156.47 8729.89,1165.95 8746.2,1175.48 8762.5,1185.04 8778.81,1194.63 8795.11,1204.27 8811.41,1213.94 
  8827.71,1223.65 8844.01,1233.4 8860.31,1243.18 8876.6,1253.01 8892.89,1262.87 8909.18,1272.76 8925.47,1282.7 8941.76,1292.67 8958.05,1302.68 8974.33,1312.73 
  8990.62,1322.82 9006.9,1332.94 9023.18,1343.1 9039.46,1353.3 9055.73,1363.54 9072.01,1373.81 9088.28,1384.12 9104.55,1394.47 9120.82,1404.86 9137.09,1415.28 
  9153.36,1425.75 9169.62,1436.24 9185.89,1446.78 9202.15,1457.36 9218.41,1467.97 9234.67,1478.62 9250.92,1489.3 9267.18,1500.03 9283.43,1510.79 9299.68,1521.59 
  9315.94,1532.43 9332.18,1543.3 9348.43,1554.21 9364.68,1565.16 9380.92,1576.15 9397.16,1587.17 9413.4,1598.24 9429.64,1609.34 9445.88,1620.47 9462.12,1631.65 
  9478.35,1642.86 9494.58,1654.11 9510.81,1665.4 9527.04,1676.72 9543.27,1688.08 9559.5,1699.48 9575.72,1710.92 9591.95,1722.39 9608.17,1733.9 9624.39,1745.45 
  9640.6,1757.04 9656.82,1768.66 9673.04,1780.33 9689.25,1792.02 9705.46,1803.76 9721.67,1815.53 9737.88,1827.34 9754.09,1839.19 9770.29,1851.08 9786.49,1863 
  9802.7,1874.96 9818.9,1886.96 9835.09,1899 9851.29,1911.07 9867.49,1923.18 9883.68,1935.33 9899.87,1947.51 9916.06,1959.74 9932.25,1972 9948.44,1984.29 
  9964.63,1996.63 9980.81,2009 9996.99,2021.41 10013.2,2033.85 10029.4,2046.34 10045.5,2058.86 10061.7,2071.42 10077.9,2084.01 10094.1,2096.65 10110.2,2109.32 
  10126.4,2122.03 10142.6,2134.77 10158.7,2147.55 10174.9,2160.37 10191.1,2173.23 10207.2,2186.13 10223.4,2199.06 10239.5,2212.03 10255.7,2225.03 10271.8,2238.08 
  10288,2251.16 10304.2,2264.28 10320.3,2277.43 10336.4,2290.63 10352.6,2303.86 10368.7,2317.12 10384.9,2330.43 10401,2343.77 10417.2,2357.15 10433.3,2370.57 
  10449.4,2384.02 10465.6,2397.51 10481.7,2411.04 10497.8,2424.6 10514,2438.21 10530.1,2451.85 10546.2,2465.52 10562.4,2479.24 10578.5,2492.99 10594.6,2506.78 
  10610.7,2520.6 10626.8,2534.47 10643,2548.37 10659.1,2562.31 10675.2,2576.28 10691.3,2590.29 10707.4,2604.34 10723.5,2618.43 10739.6,2632.55 10755.7,2646.71 
  10771.8,2660.91 10788,2675.15 10804.1,2689.42 10820.2,2703.73 10836.3,2718.08 10852.3,2732.46 10868.4,2746.88 10884.5,2761.34 10900.6,2775.83 10916.7,2790.37 
  10932.8,2804.94 10948.9,2819.54 10965,2834.19 10981.1,2848.87 10997.1,2863.59 11013.2,2878.34 11029.3,2893.13 11045.4,2907.96 11061.5,2922.83 11077.5,2937.73 
  11093.6,2952.67 11109.7,2967.65 11125.7,2982.67 11141.8,2997.72 11157.9,3012.81 11173.9,3027.93 11190,3043.1 11206.1,3058.3 11222.1,3073.54 11238.2,3088.81 
  11254.2,3104.12 11270.3,3119.47 11286.4,3134.86 11302.4,3150.28 11318.5,3165.74 11334.5,3181.24 11350.6,3196.77 11366.6,3212.34 11382.6,3227.95 11398.7,3243.59 
  11414.7,3259.28 11430.8,3275 11446.8,3290.75 11462.8,3306.54 11478.9,3322.37 11494.9,3338.24 11510.9,3354.15 11527,3370.09 11543,3386.07 11559,3402.08 
  11575,3418.13 11591.1,3434.22 11607.1,3450.35 11623.1,3466.51 11639.1,3482.71 11655.1,3498.95 11671.2,3515.22 11687.2,3531.53 11703.2,3547.88 11719.2,3564.27 
  11735.2,3580.69 11751.2,3597.15 11767.2,3613.64 11783.2,3630.18 11799.2,3646.75 11815.2,3663.35 11831.2,3680 11847.2,3696.68 11863.2,3713.39 11879.2,3730.15 
  11895.2,3746.94 11911.2,3763.77 11927.2,3780.63 11943.2,3797.54 11959.2,3814.47 11975.1,3831.45 11991.1,3848.46 12007.1,3865.51 12023.1,3882.6 12039.1,3899.72 
  12055,3916.88 12071,3934.08 12087,3951.31 12103,3968.58 12118.9,3985.89 12134.9,4003.24 12150.9,4020.62 12166.8,4038.04 12182.8,4055.49 12198.8,4072.98 
  12214.7,4090.51 12230.7,4108.08 12246.6,4125.68 12262.6,4143.32 12278.5,4161 12294.5,4178.71 12310.4,4196.46 12326.4,4214.25 12342.3,4232.07 12358.3,4249.93 
  12374.2,4267.83 12390.2,4285.76 12406.1,4303.73 12422.1,4321.74 12438,4339.78 12453.9,4357.87 12469.9,4375.98 12485.8,4394.14 12501.7,4412.33 12517.7,4430.56 
  12533.6,4448.82 12549.5,4467.12 12565.4,4485.46 12581.4,4503.84 12597.3,4522.25 12613.2,4540.7 12629.1,4559.18 12645,4577.71 12661,4596.27 12676.9,4614.86 
  12692.8,4633.49 12708.7,4652.16 12724.6,4670.87 12740.5,4689.61 12756.4,4708.39 12772.3,4727.21 12788.2,4746.06 12804.1,4764.95 12820,4783.88 12835.9,4802.84 
  12851.8,4821.84 12867.7,4840.88 12883.6,4859.95 12899.5,4879.06 12915.4,4898.21 12931.3,4917.39 12947.2,4936.61 12963.1,4955.86 12978.9,4975.16 12994.8,4994.49 
  13010.7,5013.85 13026.6,5033.26 13042.5,5052.7 13058.3,5072.17 13074.2,5091.69 13090.1,5111.24 13106,5130.82 13121.8,5150.45 13137.7,5170.11 13153.6,5189.8 
  13169.4,5209.53 13185.3,5229.3 13201.2,5249.11 13217,5268.95 13232.9,5288.83 13248.7,5308.75 13264.6,5328.7 13280.4,5348.69 13296.3,5368.72 13312.2,5388.78 
  13328,5408.88 13343.8,5429.01 13359.7,5449.18 13375.5,5469.39 13391.4,5489.64 13407.2,5509.92 13423.1,5530.24 13438.9,5550.59 13454.7,5570.99 13470.6,5591.41 
  13486.4,5611.88 13502.2,5632.38 13518.1,5652.92 13533.9,5673.49 13549.7,5694.1 13565.5,5714.75 13581.4,5735.43 13597.2,5756.15 13613,5776.91 13628.8,5797.7 
  13644.7,5818.53 13660.5,5839.4 13676.3,5860.3 13692.1,5881.24 13707.9,5902.22 13723.7,5923.23 13739.5,5944.28 13755.3,5965.37 13771.1,5986.49 13786.9,6007.65 
  13802.7,6028.84 13818.5,6050.07 13834.3,6071.34 13850.1,6092.64 13865.9,6113.98 13881.7,6135.36 13897.5,6156.78 13913.3,6178.23 13929.1,6199.71 13944.9,6221.24 
  13960.7,6242.79 13976.5,6264.39 13992.2,6286.02 14008,6307.69 14023.8,6329.4 14039.6,6351.14 14055.4,6372.92 14071.1,6394.73 14086.9,6416.58 14102.7,6438.47 
  14118.4,6460.39 14134.2,6482.35 14150,6504.35 14165.7,6526.38 14181.5,6548.45 14197.3,6570.56 14213,6592.7 14228.8,6614.88 14244.6,6637.09 14260.3,6659.34 
  14276.1,6681.63 14291.8,6703.96 14307.6,6726.32 14323.3,6748.71 14339.1,6771.14 14354.8,6793.61 14370.6,6816.12 14386.3,6838.66 14402,6861.24 14417.8,6883.86 
  
  "/>
<polyline clip-path="url(#clip4402)" style="stroke:#000000; stroke-width:12; stroke-opacity:1; fill:none" stroke-dasharray="6, 12" points="
  -5414.01,7037.41 -5419.43,7034.28 -5425.36,7035.11 -5423.96,7023.83 -5426.97,7013.82 -5430.52,7000.57 -5443.11,6993.08 -5451.02,6989.22 -5448.29,6970.27 -5447.64,6956.04 
  -5450.74,6929.61 -5466.11,6900.88 -5469.1,6882.49 -5449.45,6859.04 -5450.42,6828.47 -5427.27,6807.28 -5441.83,6770.47 -5442.56,6730.83 -5434.89,6701.18 -5410.89,6672.31 
  -5419.71,6647.19 -5426.7,6606.27 -5430.37,6590 -5395.09,6546.48 -5359.14,6516.99 -5326.47,6477.64 -5308.78,6441.77 -5288.4,6417.7 -5282.64,6398.33 -5254.2,6361.65 
  -5248.34,6337.31 -5233.29,6312.52 -5236.3,6293.76 -5219.84,6258.75 -5204.21,6220.27 -5171.83,6199.72 -5138.81,6164.88 -5107.57,6129.91 -5090.32,6113.98 -5077.14,6082.65 
  -5036.67,6061.58 -5025.76,6045.07 -4996.71,6023.87 -4964.6,6012.4 -4938.98,5989 -4919.12,5976.07 -4888.61,5964.47 -4869.12,5937.27 -4833.03,5901.55 -4815.63,5872.57 
  -4794.48,5852.02 -4759.93,5818.09 -4745.27,5798.97 -4739.88,5774.76 -4716.19,5762.62 -4695.45,5741.96 -4672.14,5713.57 -4657.98,5700.66 -4637.53,5676.99 -4615.1,5662.93 
  -4610.86,5631.65 -4609.75,5613.92 -4578.09,5601.77 -4560.37,5584.54 -4559,5569.67 -4545.74,5552.28 -4512.24,5524.16 -4507.85,5509.63 -4504.56,5476.54 -4487.57,5452.69 
  -4484.48,5434.48 -4454.01,5417.33 -4426.26,5392.7 -4396.43,5373.76 -4385.71,5346.96 -4352.26,5322.43 -4345.33,5306.55 -4333.78,5289.84 -4304.83,5257.73 -4284.66,5235.99 
  -4260.86,5220.54 -4234.68,5203.14 -4218.05,5170.8 -4206.63,5144.53 -4196.36,5127.62 -4185.24,5098.62 -4173.63,5086.2 -4147.45,5073.94 -4114.46,5049.19 -4080.33,5017.59 
  -4066.76,4985.85 -4053.66,4974.81 -4045.08,4960.85 -4041.89,4942.99 -4016.64,4929.16 -3990.93,4915.08 -3984,4891.48 -3973.67,4869.67 -3951.12,4842.84 -3916.23,4819.41 
  -3903.2,4804.23 -3881.56,4790 -3875.61,4766.85 -3856.44,4742.42 -3845.29,4727.63 -3821.51,4701.2 -3798.14,4684.92 -3785.51,4667.14 -3772.17,4646.17 -3740.77,4631.47 
  -3708.64,4612.02 -3675.51,4595.41 -3667.05,4574.14 -3651.21,4558.01 -3633.71,4541.69 -3603.21,4524.01 -3590.39,4504.47 -3561.47,4481.42 -3531.05,4453.55 -3513.19,4424.78 
  -3490.08,4406.35 -3488.38,4394.86 -3458.08,4375.05 -3433.88,4354.61 -3408.28,4333.6 -3388.91,4309.67 -3358,4288.94 -3330.15,4271.94 -3301.57,4247.35 -3290.59,4223.61 
  -3285.87,4214.13 -3264.26,4187.75 -3257.34,4165.96 -3249.55,4142.02 -3220.27,4129.42 -3189.49,4115.4 -3179.29,4100.96 -3173.38,4080.52 -3145.84,4058.93 -3114.36,4037 
  -3108.31,4012.99 -3094.9,3993.25 -3069.21,3968.6 -3062.98,3942.1 -3045.46,3933.49 -3038.74,3918.14 -3009.29,3895.05 -2983.71,3873.75 -2973.64,3864.25 -2950.38,3848.67 
  -2948.67,3841.07 -2935.66,3826.82 -2908.29,3818.97 -2902.31,3803.76 -2884.5,3790.07 -2876.69,3767.22 -2870.33,3743.41 -2865.27,3723.55 -2832.96,3707.64 -2820.98,3680.78 
  -2793.68,3666.89 -2779.81,3655.07 -2764.25,3644.66 -2744.51,3623.55 -2738.11,3601.31 -2707.78,3591.32 -2685.53,3583.03 -2671.79,3568.77 -2644.37,3561.24 -2642.86,3534.88 
  -2630.61,3518.04 -2615.92,3500.04 -2587.67,3488.96 -2578.59,3478.76 -2569.44,3464.25 -2545.41,3453.6 -2530.21,3433.94 -2513.87,3420.65 -2509.19,3393.43 -2489.91,3369.61 
  -2457.16,3349.63 -2456.24,3337.27 -2424.3,3324.6 -2402.48,3306.45 -2381.46,3295.45 -2376.99,3288.79 -2359.79,3269.46 -2354.95,3251.84 -2345.73,3239.65 -2317.39,3222.34 
  -2286.48,3207.72 -2281.66,3186.55 -2267.63,3163.83 -2244.96,3143.56 -2237.28,3130.08 -2206,3107.03 -2203.13,3082.17 -2170.03,3061.87 -2140.45,3055.18 -2107.92,3044.28 
  -2090.79,3021.42 -2067.14,3013.73 -2043.18,3002.92 -2011.56,2996.92 -1986.75,2990.52 -1984.62,2974.66 -1956.84,2960.36 -1942.89,2939.53 -1914.32,2922.5 -1888.41,2910.39 
  -1884.77,2888.55 -1884.92,2871.73 -1879.06,2848.7 -1874.8,2825.72 -1873.2,2813.89 -1852.61,2789.41 -1833.37,2783.4 -1831.07,2774.18 -1829.21,2763.19 -1804.79,2747.67 
  -1779.91,2729.37 -1747.49,2713.91 -1718.93,2703.49 -1717.82,2696.53 -1712.23,2678.21 -1683.11,2661.27 -1652.88,2654.22 -1641.34,2644.17 -1626.3,2635.52 -1623.12,2629.37 
  -1616.68,2612.35 -1586.31,2601.32 -1568.31,2579.63 -1557.78,2565.62 -1543.67,2550.64 -1522.85,2540.5 -1494.66,2519.27 -1462.48,2514.17 -1446.48,2494.53 -1429.53,2485.97 
  -1401.85,2461.77 -1382.18,2453.25 -1376.85,2441.22 -1367.83,2432.71 -1364.16,2426.59 -1346.33,2414.67 -1336.4,2403.49 -1321.98,2380.65 -1307.88,2356.94 -1301.78,2335.8 
  -1270.89,2320.04 -1262.2,2300.3 -1238.66,2281.22 -1229.56,2256.4 -1219.82,2233.75 -1191.17,2220.66 -1162.91,2211.76 -1139.95,2200.33 -1123.75,2176.84 -1106.11,2161.93 
  -1100.78,2153.67 -1077.05,2144.34 -1070.36,2133.25 -1037.21,2123.89 -1021.31,2120.71 -1001.41,2116.06 -970.424,2095.28 -955.046,2089.52 -929.974,2079.38 -904.413,2070.01 
  -878.117,2051.88 -870.39,2045.8 -860.699,2037.57 -833.775,2029.27 -819.412,2014.68 -805.88,2000.5 -799.561,1981.43 -770.139,1967.81 -742.933,1958.91 -735.328,1940.42 
  -711.473,1930.75 -679.729,1926.84 -665.209,1911.28 -648.199,1889.9 -632.842,1873.41 -623.604,1869.6 -610.44,1864.85 -604.975,1850.37 -591.658,1842.02 -579.068,1820.51 
  -551.652,1802.07 -531.019,1795.04 -514.051,1787.03 -506.609,1776.59 -477.277,1758.6 -453.066,1754.72 -435.159,1747.57 -413.572,1730.13 -382.788,1711.62 -376.432,1692.5 
  -357.794,1676.69 -340.308,1656.73 -321.666,1654.62 -320.148,1638.72 -318.465,1618.41 -289.589,1598.68 -282.414,1589.35 -254.256,1576.58 -228.316,1556.38 -227.452,1542.07 
  -198.569,1523.83 -196.635,1516.02 -166.696,1497.46 -159.783,1484.08 -155.64,1477.8 -138.35,1458.08 -117.164,1438.33 -96.0571,1432.81 -69.2751,1419.38 -62.0889,1415.34 
  -39.6963,1405.98 -9.08376,1390.69 7.94517,1370.81 17.9534,1358.39 48.301,1349.97 58.8736,1343.99 76.4263,1340.15 104.727,1332.33 120.368,1327.37 129.037,1324.35 
  139.434,1324.09 169.552,1307.75 171.213,1298.7 182.469,1291.61 193.469,1274.31 201.631,1274.5 223.733,1263.82 254.851,1251.23 279.721,1235.49 298.325,1232.13 
  315.401,1228.83 341.578,1212.83 348.355,1201.48 378.655,1182.02 397.77,1171.06 405.018,1163.24 410.73,1149.59 435.578,1150.57 467.221,1143.08 493.937,1135.8 
  508.723,1133.68 524.261,1132.25 538.364,1113.4 556.63,1094.89 577.699,1085.04 584.254,1069.3 609.739,1053.9 611.44,1040.32 630.375,1031.49 658.814,1020.03 
  684.135,1004.8 687.539,1005.38 694.512,997.638 719.339,999.004 740.445,988.095 771.72,987.969 786.82,985.552 817.384,981.166 829.616,968.944 833.247,967.953 
  838.351,956.26 846.134,942.361 865.023,924.849 891.941,921.818 911.248,917.907 940.697,904.716 964.236,893.376 975.354,875.41 982.149,859.592 985.384,856.516 
  991.8,851.515 1002.5,839.615 1010.69,835.399 1023.7,825.163 1037.29,808.149 1069.18,794.753 1092.64,784.909 1107.25,783.052 1128.81,772.396 1139.3,763.19 
  1143.07,751.853 1151.48,747.061 1182.47,735.423 1194.85,724.804 1222.14,713.726 1250.06,699.68 1252.61,692.939 1283.24,688.125 1300.31,685.715 1329.38,669.845 
  1330.51,667.6 1355.52,662.61 1361.6,646.444 1365.97,636.94 1374.13,632.619 1402.96,632.676 1430.14,620.136 1461.86,616.741 1471.29,611.541 1500.74,614.096 
  1512.87,601.918 1513.93,590.387 1534.12,595.407 1535.02,594.837 1537.87,584.345 1555.53,585.523 1564.97,569.723 1588.45,561.609 1609.99,554.11 1639.94,539.628 
  1657.07,540.38 1661.12,528.465 1692.39,524.112 1707.04,516.753 1727.54,504.341 1759.43,509.631 1784.01,512.632 1803.47,500.35 1817.56,499.47 1836.18,489.795 
  1851.61,485.343 1853.11,472.16 1859.72,471.675 1884.98,466.534 1898.88,462.512 1910.81,450.368 1939.56,446.569 1942.64,448.874 1964.36,442.528 1968.43,429.575 
  1986.8,432.699 1996.66,434.533 2020.84,419.072 2049.24,410.422 2051.61,402.518 2077.19,405.08 2098.17,392.346 2124.77,395.329 2128.63,393.509 2133.74,387.522 
  2154.89,382.375 2157.9,383.909 2160.94,370.302 2168.67,364.109 2179.19,363.686 2210.07,354.501 2220.02,347.036 2249.6,343.439 2277.61,339.831 2309.81,325.265 
  2312.9,312.504 2325.59,305.134 2341.36,311.337 2361.55,296.944 2372.22,283.451 2384.29,279.008 2407.35,278.38 2439.23,266.06 2457.28,266.243 2469.91,260.809 
  2496.09,254.753 2508.97,250.221 2526.72,251.464 2548.42,257.477 2580.46,258.122 2591.56,262.223 2601.99,255.581 2630.71,241.392 2636.33,247.403 2656.86,235.171 
  2690.28,234.309 2712.12,232.13 2716.46,220.42 2728.8,214.089 2740.04,212.931 2749.24,202.099 2759.69,193.06 2770.28,192.924 2773.3,185.702 2789.38,172.09 
  2802.11,171.886 2833.99,172.13 2845.3,162.163 2869.56,149.321 2897.01,155.763 2912.39,159.151 2929.13,147.382 2951.55,145.646 2962.56,150.308 2975.99,137.155 
  2988.04,143.569 3000.92,135.423 3015.39,129.778 3040.57,124.508 3048.9,128.486 3060.04,123.944 3086.03,111.252 3105.24,99.3876 3112.62,98.4861 3120.11,87.5504 
  3143.34,88.7499 3158.25,82.3876 3181.02,85.9826 3200.15,81.3871 3227.24,78.8104 3250.76,72.487 3253.84,70.4267 3273.96,59.5531 3287.06,58.0417 3296.7,63.3656 
  3309.73,61.6052 3330,52.5391 3343.83,47.3718 3352.98,41.0251 3376,31.7596 3388.2,37.6828 3409.04,38.6218 3431.42,43.2338 3447.21,42.4033 3470.58,36.1152 
  3483.39,43.5244 3489.72,33.7887 3515.04,32.1277 3525,37.4156 3540,43.5553 3562.02,35.6997 3584.93,39.4667 3600.02,33.1847 3619.14,35.2486 3646.32,37.1164 
  3677.06,30.5639 3696.45,22.3494 3707.29,29.0348 3735.53,28.055 3738.33,15.9524 3770.91,17.1444 3785.34,18.2936 3794.48,21.3324 3801.34,30.3317 3811.15,29.8929 
  3821.3,27.895 3843.89,36.4529 3861.04,34.8655 3875.04,39.2697 3899.96,35.7558 3928.63,38.8416 3960.34,37.6963 3969.94,37.1834 3975.65,28.8867 3990.09,21.9409 
  4000.99,27.8819 4005.56,18.9948 4015.89,17.6663 4020.3,15.7698 4041.36,11.7294 4064.95,7.53885 4075.07,5.85691 4107.5,11.0898 4111.8,10.7863 4129.9,8.91423 
  4145.06,2.24485 4154.22,6.7687 4169.77,14.7978 4179.32,7.13792 4184.82,0.319987 4197.33,-7.8516 4208.19,-2.58449 4237.03,-2.89028 4253.07,-8.72291 4283.98,-6.33519 
  4312.96,-6.19546 4330.59,-12.7672 4361.98,-16.0886 4391.04,-12.6979 4417.2,-11.7532 4445.24,-7.45491 4456.01,-8.92286 4474.9,-9.9022 4496.39,-19.8075 4508.72,-13.9732 
  4514.39,-21.2527 4519.54,-28.7199 4541.03,-30.4651 4559.28,-25.4477 4592.53,-35.1069 4620.61,-25.3529 4646.79,-26.7862 4678.66,-23.2586 4706.69,-13.1221 4711.03,-4.20788 
  4727.27,-10.8499 4754.97,-6.40144 4768.13,-13.4099 4795.75,-23.7165 4823.04,-15.3634 4838.43,-22.753 4866.4,-20.1664 4878.68,-29.0856 4883.06,-27.1753 4888.07,-26.1455 
  4899.78,-26.1245 4900.59,-32.6743 4903.09,-27.3255 4920.12,-34.7996 4928.24,-31.0655 4946.97,-21.9956 4971.28,-27.755 4988.32,-24.6184 4996.73,-18.0454 4999.23,-15.5954 
  5004.13,-5.90756 5034.83,-8.10663 5044.45,-16.6829 5055.26,-5.72292 5059.29,-14.8165 5063.45,-21.8806 5087.43,-16.1168 5108.22,-7.96797 5121.58,-7.03508 5141.66,-3.11007 
  5166.51,6.22029 5195.73,-2.24645 5219.15,-3.95313 5234.4,-8.87703 5248.4,3.06779 5268.31,8.28728 5277.25,10.0301 5304.25,7.76671 5306.6,5.28584 5320.17,7.7798 
  5340.36,8.13108 5347.78,12.019 5368.88,4.1906 5381.29,14.2716 5396.8,25.8703 5400.28,33.6294 5411.06,34.9798 5424.04,34.1701 5451.75,30.6846 5485.83,29.4808 
  5517.43,31.717 5539.36,37.2981 5553.64,37.9524 5575.18,30.0537 5578.23,28.3861 5607.09,25.1152 5633.91,27.3997 5665.99,22.8921 5669.73,31.517 5680.53,28.8684 
  5705.15,38.8899 5721.19,46.8258 5732.09,41.2458 5764.08,38.0758 5785.49,37.439 5812.92,38.129 5838.2,50.6196 5840.38,49.0747 5843.18,52.4805 5873.67,62.4762 
  5903.78,65.4122 5913.19,77.4878 5943.11,87.7895 5970.82,88.0682 5977.32,81.3696 5996.56,83.9828 6024.56,88.3375 6028.01,86.0999 6037.7,93.4351 6059.58,99.7981 
  6060.98,103.782 6090.23,116.59 6112.63,124.709 6119.31,133.249 6133.52,141.676 6155.54,144.967 6179.64,140.628 6190.3,150.393 6214.23,153.863 6220.26,150.975 
  6235.12,149.196 6257.76,161.648 6273.21,158.11 6291.48,162.08 6298.59,175.964 6306.8,170.291 6330.41,181.515 6354.12,176.838 6357.59,185.34 6385.48,198.166 
  6413.4,194.21 6443.2,195.659 6449.86,193.257 6464.74,205.085 6474.38,214.911 6474.74,223.002 6500.32,218.449 6501.22,225.043 6531.58,219.582 6551.15,224.397 
  6559.78,238.725 6580.54,251.558 6609,264.468 6615.74,277.115 6637.71,285.991 6654.03,297.463 6682.9,304.398 6712.41,301.695 6734.45,305.779 6763.28,302.272 
  6779.74,316.505 6806.54,316.503 6831.05,315.235 6846.6,320.706 6866.91,326.15 6869.75,324.815 6877.13,337.103 6905.81,345.296 6909.99,344.864 6911.86,354.826 
  6940.25,357.677 6955.66,366.55 6970.02,380.281 6978.97,377.932 6989.11,388.039 7018.17,398.69 7029.8,403.914 7027.73,399.837 7052.66,413.258 7065.29,412.553 
  7069.13,417.566 7094.85,427.936 7124.21,440.87 7151.28,445.016 7164.32,445.352 7183.61,445.811 7208.85,452.021 7225.66,448.166 7247.91,456.051 7248.33,469.194 
  7258.07,466.929 7283.59,482.093 7293.13,487.502 7303.76,494.082 7305.97,503.106 7334.13,500.347 7354.14,498.332 7378.17,499.494 7384.5,499.246 7402.96,506.56 
  7408.15,518.23 7435.82,516.993 7436.79,520.496 7459.78,522.596 7467.15,536.937 7466.39,534.571 7488.71,548.425 7494.08,553.424 7520.15,565.13 7535.55,575.786 
  7559.24,588.967 7588.06,591.852 7602.69,601.999 7614.46,605.139 7638,615.811 7639.43,611.207 7646.37,626.504 7659.06,624.689 7662.26,640.715 7688.74,649.975 
  7698.19,650.001 7714.13,662.283 7740.88,662.482 7755.29,662.352 7760.33,665.979 7777.33,674.203 7783.41,671.829 7809.84,686.441 7815.35,697.04 7835.53,696.608 
  7849.13,697.909 7879.2,696.374 7893.54,702.707 7904.18,706.497 7929.93,713.895 7946.03,722.22 7963.88,721.294 7977.9,739.299 8004.62,750.414 8009.29,753.321 
  8017.33,760.177 8037.07,778.388 8058.87,784.272 8086.52,782.287 8090.11,784.004 8108.17,793.792 8130.92,797.225 8147.39,809.531 8152.76,818.527 8168.74,825.565 
  8186.48,838.233 8197.81,846.167 8216.89,857.118 8221.73,873.717 8251.09,890.121 8256.3,907.492 8263.67,906.596 8272.2,908.955 8301.05,908.134 8319.82,912.607 
  8320.34,916.744 8339.64,916.738 8355.26,918.876 8361.2,926.839 8382.25,927.397 8384.7,940.041 8388.7,954.187 8411.29,970.954 8431.74,982.238 8449.31,995.295 
  8476.34,1001.93 8491.86,1002.04 8505.37,1022.93 8529.75,1038.84 8559.97,1057.18 8583.55,1059.72 8615.15,1080.02 8623.65,1090.99 8650.05,1105.45 8651.1,1107.33 
  8676.83,1117.3 8697.24,1135.32 8708.96,1154.82 8736.42,1157.92 8742.05,1170.24 8759.51,1175.82 8765.7,1192.41 8770.67,1207.1 8781.1,1225.28 8796.1,1238.95 
  8800.51,1248.19 8815.56,1266.66 8838.12,1273.68 8865.8,1277.21 8881.72,1290.49 8912.21,1295.03 8934.11,1313.09 8946.97,1326.57 8960.96,1345.24 8966.69,1348.16 
  8990.38,1355.73 9019.34,1356.84 9040.22,1356.1 9055.03,1363.61 9078.58,1380.73 9092.31,1400.07 9122.81,1408.59 9152.37,1425.55 9182.68,1431.3 9196.86,1445.33 
  9217.9,1454.08 9223.05,1468.08 9235.7,1484.83 9262.25,1503.46 9277.69,1522.57 9302.32,1530.39 9309.36,1547.19 9320.63,1564.49 9338.01,1569.73 9347.46,1576.93 
  9353.01,1588.63 9365.87,1601.18 9377.11,1605.48 9384.58,1606.2 9412.25,1606.98 9428.64,1624.53 9438.51,1629.61 9465.9,1638.67 9490.1,1638.58 9508.25,1651.9 
  9509.02,1653.45 9539.23,1657.31 9548.52,1662.58 9562.82,1664.35 9577.72,1676.14 9598.44,1679.88 9599.28,1691.86 9618.09,1708.09 9633.46,1718.64 9639.52,1736.59 
  9660.93,1748.56 9662.73,1770.05 9666.24,1771.68 9681.22,1778.35 9690.66,1788.52 9706.99,1804.69 9719.51,1813.85 9725.42,1816.76 9728.29,1837.26 9755.16,1848.31 
  9769.79,1858.24 9779.32,1866.96 9792.16,1888.42 9795.83,1905.97 9821.46,1916.38 9827.86,1938.51 9848.6,1951.94 9852.13,1954.04 9885.83,1970.42 9901.89,1980.61 
  9906.95,1992.65 9930.13,2004.69 9946.06,2020.96 9961.53,2040.25 9986.64,2050.66 9998.38,2054.55 10004,2060.95 10036,2070.95 10058.2,2075.42 10067,2089.24 
  10091.1,2095.57 10120.8,2115.29 10129.5,2118.16 10161.9,2132.9 10190.8,2149.35 10207.9,2171.27 10211.4,2192.2 10228.5,2202.07 10248.7,2223.15 10249.6,2237.38 
  10259.2,2255.92 10278.3,2264.94 10308,2284.83 10317,2298.6 10330.8,2314.92 10332.3,2334.4 10340.2,2353.52 10343.5,2359.33 10366.6,2381.84 10372.3,2391.89 
  10391.7,2408.82 10401.2,2413.99 10423.2,2416.65 10440.2,2422.23 10451,2436.34 10463.2,2448.07 10473.4,2456.1 10504,2474.75 10530.2,2489.99 10558.5,2509.16 
  10562.5,2532.81 10582.9,2542 10596.3,2558.76 10627.7,2568.84 10643.7,2588.7 10673.5,2596.95 10692,2606.59 10705.4,2613.3 10722.1,2618.4 10743.6,2642.3 
  10752,2654.5 10783.3,2679.23 10798.4,2700.89 10802.3,2721.16 10819,2728.96 10839.6,2740.6 10870.8,2764.76 10875.8,2779.1 10900,2785.89 10919.9,2806.18 
  10941.8,2818.28 10957.4,2839.79 10989.3,2846.53 11013.2,2867.48 11013.1,2887.33 11015.2,2910.79 11044.4,2933.33 11045.3,2954.05 11052.3,2961.04 11059.9,2973.34 
  11083.6,2992.21 11107.6,2998.28 11135.1,3021.3 11138.9,3026.52 11151.1,3037.69 11161.1,3059.01 11172.1,3071.54 11199.2,3075.42 11201.5,3091.58 11224.1,3113.02 
  11256.4,3118.95 11269.4,3130.34 11291.8,3148.48 11311.1,3169.83 11321.2,3191.03 11322.5,3214.61 11349.8,3222.96 11356.8,3245.88 11379.3,3254.62 11394.6,3264.03 
  11395.7,3270.58 11413.6,3287.34 11443.9,3312.36 11447.3,3332.65 11466.5,3353.51 11479.3,3373.99 11486.6,3394.67 11511.3,3414.23 11532.7,3424.2 11554.9,3439.13 
  11567.9,3452.05 11595.7,3470.39 11607.1,3478.4 11628.5,3498.24 11652,3518.81 11655.5,3529.15 11673.4,3536.04 11702.2,3554.67 11707.5,3569.02 11719.7,3594.55 
  11722.3,3602.69 11723.8,3627.3 11754.3,3642.97 11756.6,3666.39 11760.8,3680.79 11778.1,3694.32 11789.5,3708.54 11797.3,3717.77 11830.8,3727.08 11837,3752.88 
  11839.5,3773.75 11847.8,3790.17 11869.2,3801.28 11875,3808.48 11886.9,3833.48 11902.6,3852.93 11908,3877.62 11939.5,3897.12 11956.6,3919.26 11977.2,3938.68 
  12004.7,3949.57 12009.8,3963.49 12042.1,3972.05 12059.6,3989.1 12089.3,4003.56 12110.1,4014.91 12120.5,4041.13 12133.4,4063.02 12137.7,4070.61 12162.8,4087.97 
  12189,4113.15 12221,4128.4 12228.1,4136.4 12248.2,4160.45 12255.5,4178.33 12270.9,4186.02 12281.6,4210.34 12284.5,4217.18 12314.4,4226.72 12316.3,4236.82 
  12325.9,4256.46 12349.3,4280.89 12369,4300.39 12394.9,4320.55 12423,4346.84 12443.9,4373.82 12448.4,4398.68 12476.4,4407.92 12499.8,4431.12 12523.5,4449.72 
  12554.9,4470.59 12559.3,4492.47 12584.3,4514.45 12586.4,4529.73 12597.4,4544.3 12624.7,4568.49 12625.8,4595.56 12640,4603.49 12654.3,4631.02 12671.8,4650.51 
  12684.6,4676.55 12706.4,4685.69 12709.4,4707.01 12715.5,4713.88 12723.2,4737.32 12753.6,4745.63 12773.8,4766.45 12789.3,4775.73 12791.8,4789.96 12793.5,4813.34 
  12819.2,4838.42 12847.3,4863.06 12870.1,4889.7 12890.7,4916.44 12894.9,4929.26 12899,4953.18 12917.1,4960.49 12935.2,4977.88 12953,5001.65 12975.6,5020.27 
  12977.3,5028.92 13003,5047.35 13028.9,5063.7 13046.7,5084.39 13062.1,5099.6 13071.3,5122.57 13085.6,5139.71 13090.3,5153.09 13112.2,5163.95 13126.6,5187.43 
  13130,5204.13 13158.9,5220.93 13171.9,5249.83 13188.8,5271.37 13214.5,5301.06 13241.2,5316.76 13257.2,5330.25 13284.7,5351.58 13292.2,5381.22 13296.2,5409.76 
  13297.6,5418.89 13313.5,5448.31 13326.4,5469.79 13350.7,5480.77 13375.3,5508.78 13386.8,5520.07 13395.1,5540.1 13401.5,5567.89 13419.7,5581.64 13432.6,5603.16 
  13459.4,5621.03 13475.8,5647.79 13503.4,5665.23 13508.8,5674.77 13539.8,5701.98 13557.8,5722.21 13580.5,5733.84 13593.7,5746.29 13604.7,5761.94 13609.9,5773.81 
  13633.6,5786.83 13662.9,5815.85 13677.7,5841.96 13703.1,5873.52 13726.7,5887.24 13742.8,5915.92 13766.1,5941.98 13794.9,5964.97 13813.1,5977.95 13830.3,6008.2 
  13851.5,6024.01 13875.4,6046.94 13898,6064.32 13919.9,6078.67 13926.5,6106.73 13953.7,6136.7 13967.2,6159.32 13995.2,6170.39 14004.6,6182.76 14026.1,6201.65 
  14034.6,6229.23 14054.7,6246.93 14057.6,6265.08 14080.2,6297.64 14099.3,6322.65 14123.9,6344.5 14121.7,6375.18 14141.9,6405.56 14170,6429.54 14176.3,6454.12 
  14201.1,6475.75 14202.7,6487.24 14230.9,6510.6 14230.3,6534.3 14246.4,6556.62 14274.4,6582.38 14281,6611.71 14298,6636.39 14308.4,6663.53 14319.8,6680.09 
  14336.2,6701.23 14354.1,6727.8 14368.6,6742.45 14379.8,6767.78 14388.3,6791.43 14395.9,6818.69 14411.5,6848.85 14429.2,6860.25 14443.6,6879.21 14460.5,6898.89 
  
  "/>
<path clip-path="url(#clip4400)" d="
M1717.06 372.684 L2280.76 372.684 L2280.76 130.764 L1717.06 130.764  Z
  " fill="#ffffff" fill-rule="evenodd" fill-opacity="1"/>
<polyline clip-path="url(#clip4400)" style="stroke:#000000; stroke-width:4; stroke-opacity:1; fill:none" points="
  1717.06,372.684 2280.76,372.684 2280.76,130.764 1717.06,130.764 1717.06,372.684 
  "/>
<circle clip-path="url(#clip4400)" style="fill:#009af9; stroke:none; fill-opacity:1" cx="1825.06" cy="191.244" r="21"/>
<g clip-path="url(#clip4400)">
<text style="fill:#000000; fill-opacity:1; font-family:Arial,Helvetica Neue,Helvetica,sans-serif; font-size:48px; text-anchor:start;" transform="rotate(0, 1909.06, 208.744)" x="1909.06" y="208.744">Observed Data</text>
</g>
<polyline clip-path="url(#clip4400)" style="stroke:#e26f46; stroke-width:16; stroke-opacity:1; fill:none" points="
  1741.06,251.724 1885.06,251.724 
  "/>
<g clip-path="url(#clip4400)">
<text style="fill:#000000; fill-opacity:1; font-family:Arial,Helvetica Neue,Helvetica,sans-serif; font-size:48px; text-anchor:start;" transform="rotate(0, 1909.06, 269.224)" x="1909.06" y="269.224">True Signal</text>
</g>
<polyline clip-path="url(#clip4400)" style="stroke:#000000; stroke-width:12; stroke-opacity:1; fill:none" stroke-dasharray="6, 12" points="
  1741.06,312.204 1885.06,312.204 
  "/>
<g clip-path="url(#clip4400)">
<text style="fill:#000000; fill-opacity:1; font-family:Arial,Helvetica Neue,Helvetica,sans-serif; font-size:48px; text-anchor:start;" transform="rotate(0, 1909.06, 329.704)" x="1909.06" y="329.704">Filtered Data</text>
</g>
</svg>
